<svg width="82" height="82" viewBox="0 0 82 82" fill="none" xmlns="http://www.w3.org/2000/svg">
<g clip-path="url(#clip0_35_7)">
<path d="M52.801 25.5292C51.7305 25.9429 50.7809 26.6186 50.0393 27.4946C49.4209 26.7334 48.6472 26.1129 47.7698 25.6747C46.8924 25.2365 45.9315 24.9907 44.9515 24.9536C43.9715 24.9166 42.9948 25.0891 42.0868 25.4598C41.1788 25.8305 40.3604 26.3907 39.6863 27.103L36.9554 20.0588C36.2948 18.3548 34.9844 16.9831 33.3125 16.2453C31.6405 15.5075 29.7439 15.4642 28.04 16.1247C26.336 16.7853 24.9643 18.0957 24.2265 19.7677C23.4887 21.4396 23.4454 23.3362 24.1059 25.0402L31.2222 43.3965L29.8004 42.3298C29.0936 41.7641 28.2823 41.3432 27.4129 41.0911C26.5434 40.839 25.6328 40.7606 24.733 40.8604C22.9159 41.0619 21.2532 41.9771 20.1108 43.4045C18.9684 44.832 18.4399 46.6548 18.6414 48.4719C18.843 50.2891 19.7582 51.9517 21.1856 53.0941L22.9892 54.5671C36.2807 65.425 41.7817 69.9199 52.5546 65.7435C57.9057 63.6621 62.2126 59.5431 64.5305 54.2901C66.8484 49.0372 66.988 43.0793 64.9187 37.7236L61.7164 29.4632C61.0558 27.7593 59.7454 26.3875 58.0735 25.6498C56.4015 24.912 54.5049 24.8686 52.801 25.5292ZM61.2475 39.1469C62.9406 43.5288 62.8265 48.4035 60.93 52.7014C59.0335 56.9992 55.5096 60.3693 51.1314 62.0722C42.497 65.4195 38.5531 62.1976 25.4796 51.5139L23.6678 50.0335L23.6634 50.022C23.0531 49.5319 22.6623 48.8196 22.577 48.0415C22.4916 47.2634 22.7186 46.4833 23.2082 45.8725C23.5325 45.4681 23.9585 45.1572 24.4426 44.9717C24.9263 44.7833 25.4512 44.7258 25.9642 44.805C26.4773 44.8841 26.9604 45.0971 27.3649 45.4224C27.3814 45.4372 27.399 45.4507 27.4175 45.4627L34.37 50.6856C34.7123 50.9412 35.1284 51.0786 35.5556 51.0769C35.9828 51.0752 36.3979 50.9347 36.7382 50.6764C37.0785 50.4181 37.3255 50.0562 37.4421 49.6452C37.5586 49.2342 37.5383 48.7964 37.3842 48.398L27.7772 23.6169C27.4941 22.8866 27.5127 22.0738 27.8289 21.3573C28.1451 20.6407 28.733 20.0791 29.4632 19.796C30.1935 19.5129 31.0063 19.5315 31.7229 19.8477C32.4394 20.1639 33.001 20.7518 33.2841 21.482L39.333 37.0849C39.5217 37.5718 39.8961 37.9637 40.3738 38.1745C40.8515 38.3853 41.3934 38.3977 41.8802 38.2089C42.3671 38.0202 42.759 37.6458 42.9698 37.1681C43.1806 36.6904 43.193 36.1485 43.0042 35.6617L41.9368 32.9082C41.6537 32.178 41.6723 31.3652 41.9885 30.6486C42.3047 29.932 42.8926 29.3704 43.6228 29.0873C44.3531 28.8042 45.1659 28.8228 45.8824 29.139C46.599 29.4552 47.1606 30.0431 47.4437 30.7733L49.2228 35.3624C49.4115 35.8493 49.7859 36.2412 50.2636 36.452C50.7413 36.6628 51.2832 36.6752 51.77 36.4865C52.2569 36.2977 52.6488 35.9233 52.8596 35.4456C53.0704 34.9679 53.0828 34.426 52.894 33.9392L52.5382 33.0214C52.2551 32.2911 52.2737 31.4783 52.5899 30.7617C52.9061 30.0452 53.494 29.4836 54.2243 29.2005C54.9545 28.9174 55.7673 28.936 56.4839 29.2521C57.2004 29.5683 57.762 30.1562 58.0451 30.8865L61.2475 39.1469Z" fill="white"/>
</g>
<defs>
<clipPath id="clip0_35_7">
<rect width="63" height="63" fill="white" transform="translate(0 22.7721) rotate(-21.19)"/>
</clipPath>
</defs>
</svg>
