<?xml version="1.0" encoding="utf-8"?>
<!-- Generator: Adobe Illustrator 27.6.1, SVG Export Plug-In . SVG Version: 6.00 Build 0)  -->
<svg version="1.1" id="Layer_1" xmlns="http://www.w3.org/2000/svg" xmlns:xlink="http://www.w3.org/1999/xlink" x="0px" y="0px"
	 viewBox="0 0 47.9 43.9" style="enable-background:new 0 0 47.9 43.9;" xml:space="preserve">
<style type="text/css">
	.st0{fill:#333333;}
	.st1{fill:url(#SVGID_1_);}
	.st2{fill:url(#SVGID_00000102543694907659863100000014185811305631116214_);}
	.st3{fill:url(#SVGID_00000058574230209512483210000007421563428567625879_);}
	.st4{fill:url(#SVGID_00000009592130749841104160000014148621486813236404_);}
	.st5{fill:url(#SVGID_00000057827687975554529510000005272575779373221781_);}
	.st6{fill:url(#SVGID_00000113343751545066589890000015268246202305041588_);}
	.st7{fill:url(#SVGID_00000023996583246093926290000007697986111579701893_);}
	.st8{fill:url(#SVGID_00000029734359744718250910000013399938990361598355_);}
	.st9{fill:url(#SVGID_00000028296850920354398150000002796410859110500506_);}
	.st10{fill:url(#SVGID_00000096750997486918209020000001708876911691291572_);}
</style>
<g>
	<g>
		<path class="st0" d="M8.5,29.2c-0.4,0.2-0.7,0.5-0.9,0.9c0,0,0,0,0.1,0C7.9,29.8,8.3,29.6,8.5,29.2C8.6,29.2,8.6,29.2,8.5,29.2z"
			/>
		<path class="st0" d="M19.5,22.2c0.2,0,0.4-0.1,0.6-0.2c0,0,0.1-0.1,0-0.1c-0.2,0-0.4-0.1-0.7,0c-0.1,0-0.4,0.1-0.4,0.3
			c0,0,0,0,0,0C19.2,22.3,19.4,22.2,19.5,22.2z"/>
		<path class="st0" d="M43.4,31.8c-3-4-7.8-6.4-12.5-7.6c-0.3-1.5-1-2.8-2.2-3.8c-0.6-0.5-1.2-0.7-1.9-1c-0.5-0.2-1-0.3-1.5-0.4
			c-0.1,0-0.2,0-0.3-0.1c-0.4-0.1-0.8,0-1.2,0c0,0,0,0,0,0c-0.1,0-0.2,0-0.2,0c-2.7,0-5.2,0.6-7.7,1.6c-3.9,1.5-7.7,3.9-10,7.5
			c-1,1.6-1.7,3.5-1.4,5.4c0.3,2,1.6,3.8,3.3,4.8c3.5,2.2,8.3,1.2,12-0.1c0.6-0.2,1.1-0.5,1.7-0.7c0.1,0.1,0.2,0.3,0.4,0.4
			c1.7,1.8,3.9,3.3,6.2,4.3c2.4,1.1,5.1,1.7,7.8,1.7c2.3,0,4.8-0.4,6.7-1.7c1.7-1.1,2.7-3.1,2.8-5.2C45.4,35.1,44.5,33.3,43.4,31.8z
			 M43.5,37c0-0.2,0-0.3-0.1-0.4c-0.2-0.4-0.5-0.8-0.8-1.1c0,0-0.1,0,0,0c0.2,0.5,0.5,0.9,0.5,1.5c0,0.1,0,0.2,0,0.3
			c0,0-0.1,0-0.1,0c-0.1,0.1-0.3,0.1-0.4,0.2c0.1-0.8-0.7-1.7-1.2-2.2c0,0-0.1,0-0.1,0.1c0.3,0.4,0.6,0.9,0.7,1.4
			c0.1,0.3,0.1,0.6,0.1,0.8c0,0,0,0,0,0c-0.2,0.1-0.4,0.1-0.6,0.1c0-0.8-0.5-1.6-0.9-2.3c-0.7-1-1.7-1.9-2.6-2.7
			c-2.3-1.7-4.8-3-7.5-3.9c0.2-0.5,0.3-0.9,0.4-1.4c0.1-0.5,0.2-1,0.2-1.5c0.6,0.1,1.2,0.3,1.9,0.4c0,0,0.1,0,0-0.1
			c-0.6-0.2-1.3-0.4-1.9-0.5c0-0.2,0-0.3,0-0.5c0.9,0.2,1.8,0.3,2.6,0.6c1,0.3,1.9,0.7,2.8,1.1c1.1,0.6,2.1,1.2,3.1,1.9
			c0.6,0.5,1.2,1,1.7,1.5c1,1,2,2.2,2.6,3.5c0,0.1,0.1,0.2,0.1,0.3c0,0.1,0.1,0.2,0.1,0.3c-0.1-0.2-0.2-0.4-0.3-0.5
			c-0.5-0.8-1.1-1.6-1.8-2.3c0,0-0.1,0-0.1,0.1c0.5,0.7,1.1,1.4,1.5,2.2c0.2,0.4,0.4,0.8,0.5,1.2c0.1,0.3,0,0.6,0.1,0.9
			C43.9,36.5,43.7,36.8,43.5,37z M8.3,30.7c-0.4,0.4-0.7,0.9-1,1.4c-0.1,0.2-0.2,0.4-0.2,0.6c-0.2-0.1-0.4-0.2-0.5-0.3
			c0-0.2,0-0.4,0-0.6c0.1-0.3,0.3-0.7,0.5-1c0,0,0,0,0,0c-0.1,0.2-0.7,0.9-0.8,1.4c-0.2-0.2-0.4-0.4-0.6-0.7c0-0.3,0-0.6,0.1-0.9
			c0.1-0.4,0.3-0.9,0.5-1.2c0.4-0.7,1-1.4,1.5-2.1c0,0,0-0.1,0,0C7,28,6.4,28.7,5.9,29.5c-0.1,0.2-0.3,0.5-0.5,0.9
			c0-0.4,0.1-0.9,0.3-1.3C6.3,28,7.1,26.9,8,26c1.1-1.1,2.5-2.1,3.8-2.9c1.5-0.9,3.2-1.6,4.9-2c1.6-0.4,3.2-0.8,4.9-1.1
			c1.2-0.1,2.5-0.2,3.7,0.1c-0.8,0-1.7,0-2.5,0.1c-2,0.3-4.1,0.8-6.1,1.4c0,0-0.1,0.1,0,0.1c1.9-0.4,3.8-0.8,5.7-1
			c0.9-0.1,1.9-0.2,2.8-0.1c0.4,0,0.7,0.1,1.1,0.1c0.1,0.1,0.1,0.2,0.2,0.2c-0.6-0.1-1.2,0-1.8,0.1c-1.2,0.1-2.3,0.3-3.4,0.5
			c0,0-0.1,0.1,0,0.1c1.1-0.1,2.2-0.3,3.3-0.4c0.5,0,1.1,0,1.6,0.2c0.2,0.1,0.5,0.2,0.7,0.2c0,0.1,0.1,0.2,0.1,0.4
			c-0.3,0-0.6-0.1-0.8-0.1c-0.7-0.1-1.4,0-2.2,0.1c-1.3,0.2-2.6,0.6-3.8,1.1c0,0-0.1,0.1,0,0.1c1.1-0.4,2.3-0.6,3.6-0.7
			c0.7-0.1,1.3-0.1,2,0c0.4,0,0.7,0.1,1.1,0.2c0.1,0,0.1,0,0.2,0c0,0.1,0,0.3-0.1,0.4c-2.9-0.3-5.9,0.6-8.6,1.6
			c-3,1.2-6.2,2.9-8.4,5.3c-0.5,0.5-0.9,1.1-1.3,1.8c-0.2,0.3-0.3,0.6-0.4,0.9c0,0.1,0,0.2,0,0.3c-0.2,0-0.4-0.1-0.7-0.2
			c0-0.3,0-0.5,0.1-0.8C7.7,31.6,8,31.2,8.3,30.7C8.4,30.7,8.3,30.7,8.3,30.7z M25,26.6c-0.5,0-1.1,0-1.6,0.1
			c-0.2,0-0.5,0.1-0.7,0.1c0-0.1,0-0.2,0-0.3c0-0.1,0-0.2,0-0.2c0.3-0.1,0.6-0.2,0.9-0.3c0.6-0.1,1.2-0.1,1.8-0.1
			C25.3,26.2,25.1,26.4,25,26.6z M13.8,27.8c2.4-1.4,5.1-2.6,7.9-3.3c-0.4,0.3-0.7,0.5-1,0.9c-1.4,1.5-2.2,3.6-2,5.7
			c-3.1,1.5-6.8,2.6-10.3,2.1c0,0,0,0,0,0C9.4,30.7,11.6,29.1,13.8,27.8z M26.4,24.5c-0.1,0.1-0.1,0.2-0.2,0.3
			c-0.8-0.1-1.6-0.1-2.4,0c0,0,0,0-0.1,0C24.6,24.5,25.5,24.5,26.4,24.5z M23,25.4c0.3-0.1,0.6-0.2,1-0.2c0.6,0,1.3,0,1.9,0
			c-0.1,0.2-0.2,0.3-0.3,0.5c-0.8-0.1-1.9-0.3-2.8,0C22.9,25.6,23,25.5,23,25.4z M23.1,27.2c0.4-0.1,0.9-0.1,1.4-0.1
			c-0.2,0.2-0.5,0.5-0.7,0.7c-0.3,0-0.6,0-0.9,0.1c-0.1-0.2-0.1-0.3-0.1-0.5C22.9,27.3,23,27.3,23.1,27.2z M27,24.8
			c0.6-1.1,1.1-2.6,0.7-3.8c0.1,0,0.1,0.1,0.2,0.1c0.2,0.5,0.3,1,0.3,1.5c0,1.5-0.7,2.8-1.6,4c-0.8,1.1-1.8,2.1-2.8,3.1
			c-0.2-0.2-0.3-0.5-0.4-0.7C24.8,27.8,26.1,26.4,27,24.8z M28.2,24.3c0.3-0.8,0.4-1.7,0.3-2.5c0.4,0.5,0.8,1.1,1.1,1.7
			c0.5,1.2,0.7,2.5,0.4,3.8c-0.2,1.2-0.7,2.3-1.2,3.3c-0.3,0.6-0.7,1.2-1.2,1.7c-0.2,0.2-0.5,0.5-0.7,0.7c-0.7-0.5-1.3-1.1-1.9-1.8
			c-0.4-0.4-0.8-1-1.2-1.5C25.7,28.4,27.5,26.5,28.2,24.3z M28.1,32.8c0.4-0.5,0.8-1,1.2-1.6c0.3-0.4,0.5-0.9,0.7-1.3
			c2.5,0.9,5,2,7.2,3.6c1,0.7,1.9,1.5,2.7,2.4c0.5,0.6,0.9,1.3,1.2,2c-0.6,0.1-1.1,0.1-1.7,0.1c-1.7,0-3.4-0.4-5-0.9
			c-2.4-0.8-4.9-2-6.9-3.5C27.8,33.2,28,33,28.1,32.8z M13.9,21.9c-0.3,0.1-0.5,0.3-0.8,0.4c-0.6,0.3-1.3,0.7-1.9,1.1
			c0.8-0.5,1.6-1,2.5-1.4C13.8,22,13.8,21.9,13.9,21.9z M15.4,38.8c-1.9,0.3-3.9,0.3-5.7-0.4c-1.8-0.6-3.4-1.9-4.2-3.7
			c-0.2-0.5-0.4-1-0.5-1.5c0.4,0.5,1,0.9,1.6,1.2c0.9,0.4,1.8,0.6,2.7,0.6c1,0.1,2,0.1,2.9-0.2c0,0,0.1-0.1,0-0.1
			c-0.8-0.1-1.7-0.1-2.5-0.1c-0.9-0.1-1.8-0.2-2.6-0.5c-0.7-0.3-1.4-0.7-1.9-1.3C5.1,32.7,5,32.5,5,32.3c0-0.4,0-0.8,0.1-1.1
			c0.1,1,0.7,1.8,1.6,2.3c1.4,0.7,3.1,0.8,4.6,0.7c2.7-0.2,5.2-1.1,7.6-2.3c0.3,2,1.1,3.8,2.4,5.3C19.4,38,17.4,38.6,15.4,38.8z
			 M38.1,43.2c-2.5,0.3-5.1,0-7.5-0.7c-2.3-0.7-4.5-1.9-6.4-3.4c-0.3-0.3-0.7-0.6-1-0.8c-0.1-0.1-0.2-0.3-0.3-0.4
			c-0.2-0.2-0.4-0.4-0.6-0.7c-0.4-0.5-0.8-1-1.1-1.6c-0.6-1.1-1.1-2.2-1.5-3.4c-0.6-2.5-0.1-5.2,1.9-7c-0.2,0.3-0.4,0.7-0.5,1.1
			c-0.6,2.5,1.3,5.1,3,6.8c1,1,2.3,2,3.5,2.7c0,0,0.1,0,0.1-0.1c-1.9-1.5-3.7-3.1-5-5.2c-0.6-1-1.2-2.1-1.2-3.3
			c0-0.8,0.1-1.8,0.8-2.4c0.2-0.1,0.4-0.2,0.6-0.3c-0.2,0.2-0.4,0.4-0.6,0.7c-0.9,1.5-0.4,3.2,0.4,4.6c2,3.4,5.6,5.7,9.1,7.2
			c3.1,1.3,6.9,2.3,10.2,1.2c1.1-0.4,2.3-1.1,2.5-2.4c0.1,0.4,0.1,0.7,0.1,1.1c-0.1,0.2-0.2,0.4-0.3,0.6c-0.4,0.6-1.2,1-1.9,1.3
			c-1.7,0.6-3.4,0.4-5.1,0.6c0,0-0.1,0.1-0.1,0.1c0.9,0.3,1.9,0.3,2.9,0.2c0.9-0.1,1.9-0.3,2.8-0.7c0.7-0.3,1.3-0.8,1.7-1.4
			c-0.1,0.9-0.4,1.9-0.9,2.7C42.5,42.2,40.2,42.9,38.1,43.2z"/>
		<path class="st0" d="M28.4,36C28.3,36.1,28.3,36.1,28.4,36c0,0.5,0.6,0.5,0.9,0.6c0,0,0.1,0,0.1-0.1C29.1,36.3,28.8,35.9,28.4,36z
			"/>
		<path class="st0" d="M41.2,33.8C41.1,33.8,41.1,33.8,41.2,33.8c0.1,0.2,0.2,0.4,0.4,0.5c0.1,0.1,0.3,0.3,0.4,0.4
			c0,0,0.1,0,0.1-0.1c-0.1-0.2-0.2-0.4-0.3-0.5C41.5,34,41.4,33.9,41.2,33.8z"/>
	</g>
	<g>
		<linearGradient id="SVGID_1_" gradientUnits="userSpaceOnUse" x1="-8.697456e-03" y1="22.6125" x2="35.3391" y2="-7.1266">
			<stop  offset="0" style="stop-color:#FFD292"/>
			<stop  offset="9.367340e-02" style="stop-color:#FFD292"/>
			<stop  offset="0.1637" style="stop-color:#A4783C"/>
			<stop  offset="0.2774" style="stop-color:#FFD292"/>
			<stop  offset="0.3848" style="stop-color:#FFD292"/>
			<stop  offset="0.5135" style="stop-color:#BA8942"/>
			<stop  offset="0.6203" style="stop-color:#FFD292"/>
			<stop  offset="0.6831" style="stop-color:#FFD292"/>
			<stop  offset="0.774" style="stop-color:#AA772A"/>
			<stop  offset="0.8918" style="stop-color:#FFD292"/>
			<stop  offset="1" style="stop-color:#FFD292"/>
		</linearGradient>
		<path class="st1" d="M16.9,3.9c0.2,0.5,0.3,1,0.6,1.5c0.5,1.1,1.1,2.1,1.8,3c0.6,0.7,1.2,1.5,1.4,2.4c0.5,0.2,0.8,0.2,1-0.2
			c0.1-0.1,0.2-0.3,0.2-0.4c1-2.4,1.5-4.9,1.6-7.4c0-0.8-0.1-1.5-0.5-2.2c-0.4-0.7-1.1-0.9-1.7-0.3c-0.3,0.3-0.5,0.6-0.8,0.9
			c-0.2,0.2-0.3,0.5-0.5,0.8c-0.3-0.3-0.6-0.5-0.9-0.7c-0.6-0.4-1.3-0.3-1.7,0.2C17,2.2,16.7,3,16.9,3.9z M18.4,2.7
			c0.1-0.1,0.3,0,0.4,0c0.3,0.1,0.6,0.4,0.7,0.8c0.1,0.3,0.2,0.7,0.3,1C20,4.8,20.1,5,20.5,5.2c0.4-0.2,0.4-0.5,0.4-0.9
			c0-0.5,0-1,0.1-1.5c0-0.5,0.2-1,0.6-1.4c0.1,0.2,0.3,0.3,0.4,0.4c0.3,0.6,0.3,1.3,0.2,2c-0.2,1.3-0.4,2.6-0.7,3.8
			c-0.1,0.3-0.2,0.5-0.3,0.7c-0.1,0-0.1,0-0.2-0.1c-1.2-1.5-2.3-3.2-2.8-5.1C18.2,3,18.3,2.8,18.4,2.7z"/>
		
			<linearGradient id="SVGID_00000144313294754447285290000015732106074890672310_" gradientUnits="userSpaceOnUse" x1="12.0709" y1="36.9703" x2="47.4187" y2="7.2311">
			<stop  offset="0" style="stop-color:#FFD292"/>
			<stop  offset="9.367340e-02" style="stop-color:#FFD292"/>
			<stop  offset="0.1637" style="stop-color:#A4783C"/>
			<stop  offset="0.2774" style="stop-color:#FFD292"/>
			<stop  offset="0.3848" style="stop-color:#FFD292"/>
			<stop  offset="0.5135" style="stop-color:#BA8942"/>
			<stop  offset="0.6203" style="stop-color:#FFD292"/>
			<stop  offset="0.6831" style="stop-color:#FFD292"/>
			<stop  offset="0.774" style="stop-color:#AA772A"/>
			<stop  offset="0.8918" style="stop-color:#FFD292"/>
			<stop  offset="1" style="stop-color:#FFD292"/>
		</linearGradient>
		<path style="fill:url(#SVGID_00000144313294754447285290000015732106074890672310_);" d="M34.2,18.9c0.1,0.6,0.1,1.2,0.2,1.9
			c0,0.1,0,0.1,0.1,0.3c0.2,0.1,0.4,0.2,0.7,0.3c0.3-0.3,0.6-0.5,0.9-0.8c0.9-1.1,1.6-2.3,2.3-3.6c0.1-0.3,0.3-0.6,0.3-0.9
			c0.1-0.7-0.4-1.1-1.1-0.8c-0.2,0.1-0.4,0.2-0.6,0.4c-0.2,0.2-0.5,0.4-0.8,0.6c-0.2-0.5-0.3-0.9-0.5-1.3c-0.1-0.3-0.4-0.5-0.6-0.7
			c-0.1-0.1-0.4-0.1-0.5,0c-0.6,0.4-1.1,0.9-0.9,1.7C33.9,16.9,34.1,17.9,34.2,18.9z"/>
		
			<linearGradient id="SVGID_00000077314391459733113530000016949911393201394318_" gradientUnits="userSpaceOnUse" x1="-5.0919" y1="16.5706" x2="30.2559" y2="-13.1685">
			<stop  offset="0" style="stop-color:#FFD292"/>
			<stop  offset="9.367340e-02" style="stop-color:#FFD292"/>
			<stop  offset="0.1637" style="stop-color:#A4783C"/>
			<stop  offset="0.2774" style="stop-color:#FFD292"/>
			<stop  offset="0.3848" style="stop-color:#FFD292"/>
			<stop  offset="0.5135" style="stop-color:#BA8942"/>
			<stop  offset="0.6203" style="stop-color:#FFD292"/>
			<stop  offset="0.6831" style="stop-color:#FFD292"/>
			<stop  offset="0.774" style="stop-color:#AA772A"/>
			<stop  offset="0.8918" style="stop-color:#FFD292"/>
			<stop  offset="1" style="stop-color:#FFD292"/>
		</linearGradient>
		<path style="fill:url(#SVGID_00000077314391459733113530000016949911393201394318_);" d="M5.4,8.9C6,8.9,6.5,8.6,7,8.1
			C7.4,7.6,7.4,7,7.2,6.5C7,6.1,6.7,5.9,6.3,5.8C5.1,5.8,4.3,7,4.4,8C4.4,8.5,4.9,8.9,5.4,8.9z M5.9,7C6,7.1,6,7.1,6,7.1
			C6,7.2,6,7.2,5.9,7.3c0,0-0.1-0.1-0.1-0.1C5.9,7.2,5.9,7.1,5.9,7z"/>
		
			<linearGradient id="SVGID_00000057114348531441949950000003954458181577741493_" gradientUnits="userSpaceOnUse" x1="15.3295" y1="40.8435" x2="50.6774" y2="11.1044">
			<stop  offset="0" style="stop-color:#FFD292"/>
			<stop  offset="9.367340e-02" style="stop-color:#FFD292"/>
			<stop  offset="0.1637" style="stop-color:#A4783C"/>
			<stop  offset="0.2774" style="stop-color:#FFD292"/>
			<stop  offset="0.3848" style="stop-color:#FFD292"/>
			<stop  offset="0.5135" style="stop-color:#BA8942"/>
			<stop  offset="0.6203" style="stop-color:#FFD292"/>
			<stop  offset="0.6831" style="stop-color:#FFD292"/>
			<stop  offset="0.774" style="stop-color:#AA772A"/>
			<stop  offset="0.8918" style="stop-color:#FFD292"/>
			<stop  offset="1" style="stop-color:#FFD292"/>
		</linearGradient>
		<path style="fill:url(#SVGID_00000057114348531441949950000003954458181577741493_);" d="M46.8,15c0.4,0,0.6-0.1,0.9-0.5
			c0.3-0.3,0.3-0.6,0.1-1c-0.1-0.2-0.3-0.3-0.5-0.4c-0.7,0-1.2,0.7-1.1,1.3C46.2,14.8,46.5,15,46.8,15z M47.1,14
			C47.1,14,47.2,14,47.1,14c0.1,0.1,0,0.1,0,0.2c0,0,0,0,0,0C47.1,14,47.1,14,47.1,14z"/>
		
			<linearGradient id="SVGID_00000016756882611906692290000006961866907015532683_" gradientUnits="userSpaceOnUse" x1="0.3816" y1="23.0765" x2="35.7295" y2="-6.6627">
			<stop  offset="0" style="stop-color:#FFD292"/>
			<stop  offset="9.367340e-02" style="stop-color:#FFD292"/>
			<stop  offset="0.1637" style="stop-color:#A4783C"/>
			<stop  offset="0.2774" style="stop-color:#FFD292"/>
			<stop  offset="0.3848" style="stop-color:#FFD292"/>
			<stop  offset="0.5135" style="stop-color:#BA8942"/>
			<stop  offset="0.6203" style="stop-color:#FFD292"/>
			<stop  offset="0.6831" style="stop-color:#FFD292"/>
			<stop  offset="0.774" style="stop-color:#AA772A"/>
			<stop  offset="0.8918" style="stop-color:#FFD292"/>
			<stop  offset="1" style="stop-color:#FFD292"/>
		</linearGradient>
		<path style="fill:url(#SVGID_00000016756882611906692290000006961866907015532683_);" d="M0.6,23.6c0.4,0,0.6-0.1,0.9-0.5
			c0.3-0.3,0.3-0.6,0.1-1c-0.1-0.2-0.3-0.3-0.5-0.4C0.4,21.7,0,22.5,0,23C0,23.3,0.3,23.6,0.6,23.6z M0.9,22.5
			C0.9,22.5,1,22.5,0.9,22.5c0.1,0.1,0,0.1,0,0.2c0,0,0,0,0,0C0.9,22.5,0.9,22.5,0.9,22.5z"/>
		
			<linearGradient id="SVGID_00000117673636796389777520000018120660996069266064_" gradientUnits="userSpaceOnUse" x1="6.5534" y1="30.4122" x2="41.9012" y2="0.6731">
			<stop  offset="0" style="stop-color:#FFD292"/>
			<stop  offset="9.367340e-02" style="stop-color:#FFD292"/>
			<stop  offset="0.1637" style="stop-color:#A4783C"/>
			<stop  offset="0.2774" style="stop-color:#FFD292"/>
			<stop  offset="0.3848" style="stop-color:#FFD292"/>
			<stop  offset="0.5135" style="stop-color:#BA8942"/>
			<stop  offset="0.6203" style="stop-color:#FFD292"/>
			<stop  offset="0.6831" style="stop-color:#FFD292"/>
			<stop  offset="0.774" style="stop-color:#AA772A"/>
			<stop  offset="0.8918" style="stop-color:#FFD292"/>
			<stop  offset="1" style="stop-color:#FFD292"/>
		</linearGradient>
		<path style="fill:url(#SVGID_00000117673636796389777520000018120660996069266064_);" d="M27.2,14.1c0.4,0.1,0.8,0.1,1.1-0.3
			c0.3-0.5,0.8-0.9,0.6-1.6c-0.2-0.5-0.5-0.9-1.1-1c-0.1,0-0.2,0-0.3,0.1c-0.5,0.2-0.9,0.6-1.2,1.1c-0.1,0.2-0.1,0.4-0.1,0.6
			C26.3,13.6,26.6,13.9,27.2,14.1z"/>
		
			<linearGradient id="SVGID_00000170972484233250163340000014803657472677904543_" gradientUnits="userSpaceOnUse" x1="1.8051" y1="24.7684" x2="37.1529" y2="-4.9707">
			<stop  offset="0" style="stop-color:#FFD292"/>
			<stop  offset="9.367340e-02" style="stop-color:#FFD292"/>
			<stop  offset="0.1637" style="stop-color:#A4783C"/>
			<stop  offset="0.2774" style="stop-color:#FFD292"/>
			<stop  offset="0.3848" style="stop-color:#FFD292"/>
			<stop  offset="0.5135" style="stop-color:#BA8942"/>
			<stop  offset="0.6203" style="stop-color:#FFD292"/>
			<stop  offset="0.6831" style="stop-color:#FFD292"/>
			<stop  offset="0.774" style="stop-color:#AA772A"/>
			<stop  offset="0.8918" style="stop-color:#FFD292"/>
			<stop  offset="1" style="stop-color:#FFD292"/>
		</linearGradient>
		<path style="fill:url(#SVGID_00000170972484233250163340000014803657472677904543_);" d="M12,14.4c0.4,0.7,0.9,1.4,1.5,1.9
			c0.3,0.3,0.6,0.5,1,0.7c0.3,0.2,0.5,0.1,0.6-0.2c0.1-0.3,0.2-0.6,0.3-0.9c0.3-0.8,0.5-1.6,0.6-2.4c0.1-0.4,0-0.9,0-1.3
			c0-0.3-0.1-0.6-0.3-0.8c-0.2-0.3-0.5-0.3-0.8-0.2c-0.5,0.3-0.8,0.7-0.9,1.2c0,0.2-0.1,0.4-0.1,0.7c-0.2-0.1-0.3-0.2-0.4-0.3
			c-0.2-0.1-0.3-0.2-0.5-0.3c-0.2-0.1-0.5-0.1-0.7,0.1c-0.4,0.3-0.6,0.8-0.4,1.3C11.9,14.1,11.9,14.2,12,14.4z M13.4,14.1
			c0.2,0.1,0.3,0.2,0.5,0.3c0.2,0.1,0.5,0,0.5-0.3c0.1-0.4,0.1-0.8,0.1-1.2c0-0.2,0-0.3,0.1-0.5c0-0.2,0.1-0.3,0.3-0.3
			c0.1,0,0.2,0.1,0.2,0.3c0,0.6,0.1,1.2-0.1,1.8c-0.1,0.5-0.3,1-0.5,1.6c-0.6-0.4-1.2-1.2-1.4-1.8C13.2,13.9,13.3,14,13.4,14.1z"/>
		
			<linearGradient id="SVGID_00000152255339939305751230000011488751579391397249_" gradientUnits="userSpaceOnUse" x1="19.1503" y1="45.3848" x2="54.4981" y2="15.6457">
			<stop  offset="0" style="stop-color:#FFD292"/>
			<stop  offset="9.367340e-02" style="stop-color:#FFD292"/>
			<stop  offset="0.1637" style="stop-color:#A4783C"/>
			<stop  offset="0.2774" style="stop-color:#FFD292"/>
			<stop  offset="0.3848" style="stop-color:#FFD292"/>
			<stop  offset="0.5135" style="stop-color:#BA8942"/>
			<stop  offset="0.6203" style="stop-color:#FFD292"/>
			<stop  offset="0.6831" style="stop-color:#FFD292"/>
			<stop  offset="0.774" style="stop-color:#AA772A"/>
			<stop  offset="0.8918" style="stop-color:#FFD292"/>
			<stop  offset="1" style="stop-color:#FFD292"/>
		</linearGradient>
		<path style="fill:url(#SVGID_00000152255339939305751230000011488751579391397249_);" d="M43.1,23.7c-0.1,0.6-0.2,1.2-0.1,1.8
			c0,0.3,0.1,0.6,0.2,0.9c0.1,0.2,0.2,0.3,0.4,0.2c0.2-0.1,0.4-0.3,0.6-0.4c0.5-0.3,1-0.6,1.5-1c0.2-0.2,0.4-0.5,0.6-0.7
			c0.1-0.2,0.2-0.4,0.2-0.6c0-0.3-0.1-0.4-0.4-0.5c-0.4-0.1-0.8,0-1.1,0.2c-0.1,0.1-0.3,0.2-0.4,0.3c0-0.1-0.1-0.2-0.1-0.3
			c0-0.1-0.1-0.3-0.1-0.4c-0.1-0.2-0.2-0.3-0.4-0.3c-0.4,0-0.7,0.2-0.8,0.5C43.1,23.4,43.1,23.5,43.1,23.7z M44,24.1
			c0,0.1,0.1,0.3,0.1,0.4c0.1,0.2,0.3,0.2,0.4,0.1c0.2-0.2,0.4-0.4,0.7-0.6c0.1-0.1,0.2-0.2,0.2-0.2c0.1-0.1,0.2-0.1,0.3-0.1
			c0.1,0,0.1,0.2,0,0.3c-0.3,0.3-0.5,0.7-0.9,0.9c-0.3,0.2-0.7,0.4-1,0.7c-0.2-0.5-0.1-1.2,0.1-1.7C44,24,44,24.1,44,24.1z"/>
		
			<linearGradient id="SVGID_00000018205412179159456020000001682394498715602613_" gradientUnits="userSpaceOnUse" x1="6.5246" y1="30.3779" x2="41.8724" y2="0.6388">
			<stop  offset="0" style="stop-color:#FFD292"/>
			<stop  offset="9.367340e-02" style="stop-color:#FFD292"/>
			<stop  offset="0.1637" style="stop-color:#A4783C"/>
			<stop  offset="0.2774" style="stop-color:#FFD292"/>
			<stop  offset="0.3848" style="stop-color:#FFD292"/>
			<stop  offset="0.5135" style="stop-color:#BA8942"/>
			<stop  offset="0.6203" style="stop-color:#FFD292"/>
			<stop  offset="0.6831" style="stop-color:#FFD292"/>
			<stop  offset="0.774" style="stop-color:#AA772A"/>
			<stop  offset="0.8918" style="stop-color:#FFD292"/>
			<stop  offset="1" style="stop-color:#FFD292"/>
		</linearGradient>
		<path style="fill:url(#SVGID_00000018205412179159456020000001682394498715602613_);" d="M34.5,6.5c-0.5-0.4-1.2-0.3-1.7,0
			c0-0.1-0.2-0.1-0.3-0.1c-1.3,1.2,0.7,3.6,2.1,2.5C35.4,8.3,35.2,7,34.5,6.5z M34,8.2c-0.3,0.3-0.7-0.2-0.9-0.4
			c-0.2-0.2-0.3-0.4-0.3-0.7c0,0,0,0,0,0C33.1,6.8,33.6,6.8,34,7C34.4,7.2,34.3,7.9,34,8.2z"/>
		
			<linearGradient id="SVGID_00000138551583826660976050000007688023079390035340_" gradientUnits="userSpaceOnUse" x1="-0.9146" y1="21.5358" x2="34.4332" y2="-8.2034">
			<stop  offset="0" style="stop-color:#FFD292"/>
			<stop  offset="9.367340e-02" style="stop-color:#FFD292"/>
			<stop  offset="0.1637" style="stop-color:#A4783C"/>
			<stop  offset="0.2774" style="stop-color:#FFD292"/>
			<stop  offset="0.3848" style="stop-color:#FFD292"/>
			<stop  offset="0.5135" style="stop-color:#BA8942"/>
			<stop  offset="0.6203" style="stop-color:#FFD292"/>
			<stop  offset="0.6831" style="stop-color:#FFD292"/>
			<stop  offset="0.774" style="stop-color:#AA772A"/>
			<stop  offset="0.8918" style="stop-color:#FFD292"/>
			<stop  offset="1" style="stop-color:#FFD292"/>
		</linearGradient>
		<path style="fill:url(#SVGID_00000138551583826660976050000007688023079390035340_);" d="M6.3,15.1c-0.5-0.4-1.2-0.3-1.7,0
			c0-0.1-0.2-0.1-0.3-0.1C3,16.3,5,18.6,6.4,17.5C7.2,16.9,7,15.6,6.3,15.1z M5.8,16.8c-0.3,0.3-0.7-0.2-0.9-0.4
			c-0.2-0.2-0.3-0.4-0.3-0.7c0,0,0,0,0,0c0.3-0.3,0.8-0.4,1.2-0.1C6.2,15.9,6.1,16.6,5.8,16.8z"/>
	</g>
</g>
</svg>
