<?xml version="1.0" encoding="utf-8"?>
<!-- Generator: Adobe Illustrator 27.6.1, SVG Export Plug-In . SVG Version: 6.00 Build 0)  -->
<svg version="1.1" id="Layer_1" xmlns="http://www.w3.org/2000/svg" xmlns:xlink="http://www.w3.org/1999/xlink" x="0px" y="0px"
	 viewBox="0 0 18.7 18.7" style="enable-background:new 0 0 18.7 18.7;" xml:space="preserve">
<style type="text/css">
	.st0{fill:#5895ED;}
	.st1{fill:#FFFFFF;}
</style>
<g>
	<path class="st0" d="M9.3,0C4.2,0,0,4.2,0,9.3s4.2,9.3,9.3,9.3s9.3-4.2,9.3-9.3C18.7,4.2,14.5,0,9.3,0z"/>
	<path class="st1" d="M12.7,9.1c-0.3,0.3-0.7,0.3-1,0c0,0,0,0,0,0l-1.6-1.6v5.4c0,0.4-0.3,0.7-0.7,0.7c-0.4,0-0.7-0.3-0.7-0.7V7.5
		L7,9.1c-0.3,0.3-0.7,0.3-1,0c-0.3-0.3-0.3-0.7,0-1l2.9-2.9c0.3-0.3,0.7-0.3,1,0c0,0,0,0,0,0l2.9,2.9C13,8.4,13,8.8,12.7,9.1
		C12.7,9.1,12.7,9.1,12.7,9.1z"/>
</g>
</svg>
