<?xml version="1.0" encoding="utf-8"?>
<!-- Generator: Adobe Illustrator 27.6.1, SVG Export Plug-In . SVG Version: 6.00 Build 0)  -->
<svg version="1.1" id="Layer_1" xmlns="http://www.w3.org/2000/svg" xmlns:xlink="http://www.w3.org/1999/xlink" x="0px" y="0px"
	 viewBox="0 0 38.8 49.2" style="enable-background:new 0 0 38.8 49.2;" xml:space="preserve">
<style type="text/css">
	.st0{display:none;fill:url(#SVGID_1_);}
	.st1{fill:#333333;}
	.st2{fill:url(#SVGID_00000173124749417601785350000016305015494040138407_);}
	.st3{fill:url(#SVGID_00000024717100071476258110000000062524736921689533_);}
	.st4{fill:url(#SVGID_00000073685903742785167790000006835795495240994946_);}
	.st5{fill:url(#SVGID_00000076581561590301921130000008945085397764083339_);}
	.st6{fill:url(#SVGID_00000076605596474990804620000017334901313289187742_);}
	.st7{fill:url(#SVGID_00000000220883640858959420000012377647436994080654_);}
	.st8{fill:url(#SVGID_00000160882438663703400000000012478171310289851063_);}
	.st9{fill:url(#SVGID_00000009562067362492655700000012949772238223263119_);}
	.st10{fill:url(#SVGID_00000168811149829953535300000000748567832205475239_);}
	.st11{fill:url(#SVGID_00000068667326962543713650000007453235013195372176_);}
	.st12{fill:url(#SVGID_00000048481635505544590820000003563245576926447498_);}
</style>
<g>
	<linearGradient id="SVGID_1_" gradientUnits="userSpaceOnUse" x1="-3.2269" y1="38.468" x2="87.1567" y2="-3.0667">
		<stop  offset="0" style="stop-color:#FFD392"/>
		<stop  offset="9.367340e-02" style="stop-color:#FFD392"/>
		<stop  offset="0.1637" style="stop-color:#A4783C"/>
		<stop  offset="0.2774" style="stop-color:#FFD392"/>
		<stop  offset="0.3848" style="stop-color:#FFD392"/>
		<stop  offset="0.5135" style="stop-color:#BA8942"/>
		<stop  offset="0.6203" style="stop-color:#FFD392"/>
		<stop  offset="0.6831" style="stop-color:#FFD392"/>
		<stop  offset="0.774" style="stop-color:#AA772A"/>
		<stop  offset="0.8918" style="stop-color:#FFD392"/>
		<stop  offset="1" style="stop-color:#FFD392"/>
	</linearGradient>
	<path class="st0" d="M2.5,23.4c-0.5,1.6-0.7,3.3-0.7,5c0,1.7,0.3,3.4,0.8,5l0.4,1.2c0.2,0.4,0.4,0.8,0.5,1.2
		c0.2,0.4,0.4,0.7,0.6,1.1l0.3,0.5c0.1,0.2,0.3,0.3,0.4,0.5l0.4,0.5c0.1,0.2,0.3,0.3,0.4,0.5l0.9,0.9c0.3,0.3,0.6,0.6,0.9,0.9
		l0.2,0.2l0,0L7.9,41l-0.1,0.5l-0.1-0.1l-0.1,0l-0.2-0.1L7.2,41c-0.3-0.3-0.6-0.6-1-0.9l-0.9-1C5.3,39,5.1,38.8,5,38.7l-0.4-0.5
		c-1-1.4-1.8-3-2.3-4.6c-0.5-1.7-0.8-3.4-0.8-5.1c0-1.7,0.3-3.5,0.8-5.1c1.1-3.3,3.2-6.2,6-8.2C5.6,17.2,3.5,20.1,2.5,23.4z
		 M27.1,41.9c-1.3,0.8-2.7,1.5-4.1,2c-1.6,0.5-3.3,0.7-5,0.7c-1.7,0-3.4-0.3-5-0.8l-1.2-0.4l-1.1-0.5l-0.3-0.1l-0.3-0.2l-0.5-0.3
		L9,41.8l-0.2-0.1l-0.1-0.1l0,0.2l-0.1,0.3l0.1,0.1l0.1,0l1.1,0.7l0.3,0.2l0.3,0.1l1.2,0.6l1.2,0.4c1.7,0.5,3.4,0.8,5.1,0.9
		c1.7,0,3.5-0.3,5.1-0.8c1.4-0.5,2.8-1.1,4.1-1.9c0.1,0,0.1-0.1,0.2-0.1l-0.1-0.5C27.2,41.8,27.2,41.9,27.1,41.9z M34.1,23.6
		c-1-3.3-3.1-6.2-5.9-8.3c2.7,2.1,4.7,5.1,5.6,8.4c1,3.3,0.9,6.8-0.3,10c-0.5,1.6-1.4,3.1-2.4,4.5c-0.9,1.1-1.8,2.2-3,3
		c-0.1,0.1-0.1,0.1-0.2,0.1l0.1,0.5c0.1,0,0.1-0.1,0.2-0.1c1.2-0.9,2.3-2,3.2-3.3c0.3-0.3,0.5-0.7,0.7-1.1c0.2-0.4,0.5-0.7,0.7-1.1
		l0.6-1.2c0.2-0.4,0.3-0.8,0.4-1.2C35,30.5,35.1,26.9,34.1,23.6z"/>
	<g>
		<g>
			<g>
				<g>
					<g>
						<g>
							<g>
								<g>
									<g>
										<path class="st1" d="M11.4,30.6c-0.6,2.5-1.1,5-1.7,7.5l-0.8,3.6l0,0.1l-0.1,0.3l-0.4,1.5c-0.1,0.3-0.2,0.6-0.2,0.9
											c0,0.2,0,0.5,0.2,0.7c-0.1-0.2-0.2-0.4-0.2-0.7c0-0.3,0.1-0.6,0.1-0.9l0.3-1.6l0.1-0.3l0-0.2l0.7-3.5
											c0.5-2.5,1.1-4.9,1.6-7.4l-0.5-0.1C10,33,9.4,35.5,8.7,37.9L7.9,41l-0.1,0.5l-0.1,0.2l-0.5,1.9c-0.1,0.1-0.1,0.3-0.1,0.5
											c-0.1,0.1-0.2,0.3-0.3,0.4c-0.2,0.2-0.5,0.4-0.8,0.5c0.6-0.2,1.1-0.7,1.2-1.4l0.4-1.9l0.1-0.3l0.1-0.5l0.7-3
											c0.6-2.5,1.2-5,1.8-7.5c0-0.1,0.1-0.1,0.2-0.1l0.8,0.2C11.4,30.4,11.4,30.5,11.4,30.6z"/>
									</g>
								</g>
								<g>
									<path class="st1" d="M8.2,44.6c0.8,0.2,1.5,0.4,2.3,0.6c0.4,0.1,0.7,0.3,1.1,0.5c0.2,0.1,0.3,0.2,0.5,0.4
										c0.1,0.1,0.1,0.2,0.1,0.3c0,0.1-0.2,0.2-0.2,0.3c-0.4,0.1-0.8,0.1-1.2,0.1c-0.4,0-0.8-0.1-1.2-0.1
										c-0.8-0.1-1.5-0.2-2.3-0.4c-0.8-0.2-1.5-0.3-2.3-0.6c-0.4-0.1-0.7-0.3-1.1-0.4c-0.4-0.2-0.7-0.3-1-0.6
										c-0.1-0.1-0.1-0.2-0.2-0.3c0-0.1,0-0.1,0.1-0.2c0,0,0.1-0.1,0.1-0.1C3,44,3.2,44,3.4,43.9c0.4,0,0.8,0,1.2,0
										c0.8,0.1,1.6,0.2,2.3,0.4c0,0,0,0,0,0c0,0,0,0,0,0c-0.8-0.1-1.5-0.2-2.3-0.3c-0.4,0-0.8,0-1.2,0c-0.3,0-0.9,0.2-0.5,0.4
										c0.2,0.3,0.6,0.4,0.9,0.6c0.3,0.2,0.7,0.3,1.1,0.4c0.7,0.3,1.5,0.5,2.2,0.7c0.8,0.2,1.5,0.3,2.3,0.4c0.4,0,0.8,0.1,1.2,0.1
										c0.4,0,0.8,0,1.1-0.2c0.1,0,0.1-0.1,0.2-0.1c0-0.1,0-0.1-0.1-0.2c-0.1-0.1-0.3-0.2-0.4-0.3c-0.3-0.2-0.7-0.4-1-0.5
										C9.6,45.1,8.9,44.9,8.2,44.6C8.1,44.6,8.1,44.6,8.2,44.6C8.1,44.6,8.1,44.6,8.2,44.6z"/>
									<path class="st1" d="M2.8,44.1c-0.2,0.1-0.2,0.4-0.2,0.6C2.6,44.9,2.8,45,3,45.1c0.4,0.2,0.8,0.4,1.2,0.6
										C5,46,5.9,46.2,6.7,46.4c0.9,0.2,1.7,0.4,2.6,0.5c0.9,0.1,1.7,0.2,2.6,0.1l0,0c0.1-0.1,0.1-0.2,0.2-0.3c0-0.1,0-0.2,0-0.4
										c0,0.1,0,0.2,0,0.4c0,0.1-0.1,0.3-0.2,0.3l0,0l0,0c-0.9,0.1-1.8,0-2.6-0.1c-0.9-0.1-1.7-0.3-2.6-0.5
										c-0.9-0.2-1.7-0.4-2.5-0.8c-0.4-0.2-0.8-0.3-1.2-0.6c-0.2-0.1-0.4-0.3-0.4-0.5C2.5,44.4,2.6,44.2,2.8,44.1z"/>
								</g>
							</g>
							<g>
								<g>
									<path class="st1" d="M18.5,11.2c-0.6,3.6-1.3,7.3-2,11c-0.2,0.9-0.4,1.9-0.6,2.8c-0.2,0.9-0.5,1.8-0.8,2.7
										c-0.4,0.9-0.8,1.8-1.5,2.4c-0.8,0.6-1.8,0.8-2.7,0.5c-0.2-0.1-0.5-0.1-0.7-0.2c-0.2-0.1-0.5-0.2-0.6-0.3
										c-0.2-0.1-0.4-0.3-0.5-0.5c-0.1-0.2-0.3-0.4-0.4-0.6c-0.4-0.9-0.4-1.9-0.4-2.8c0.2-1.9,0.7-3.7,1.2-5.5
										c0.9-3.6,1.9-7.2,2.9-10.8l0,0c0-0.1,0.1-0.1,0.2-0.1c0.3,0,0.6,0,0.8,0l0.8,0.2l1.5,0.3c0.5,0.1,1,0.2,1.5,0.4
										C17.6,10.7,18.1,10.8,18.5,11.2z M18.5,11.2c-0.4-0.3-0.9-0.4-1.4-0.5c-0.5-0.1-1-0.2-1.5-0.3L14,10.1L13.2,10
										c-0.2,0-0.5,0-0.7,0l0.2-0.1c-0.9,3.6-1.8,7.3-2.8,10.9l-0.7,2.7c-0.2,0.9-0.4,1.8-0.5,2.7c-0.1,0.9-0.1,1.9,0.2,2.7
										c0.2,0.4,0.4,0.8,0.8,1.1c0.4,0.3,0.8,0.4,1.3,0.5c0.9,0.2,1.9,0.1,2.6-0.5c0.7-0.6,1.1-1.5,1.4-2.3
										c0.6-1.7,0.8-3.6,1.2-5.4C16.8,18.5,17.6,14.9,18.5,11.2z"/>
								</g>
								<path class="st1" d="M12.9,9.8c-0.1,0.1-0.2,0.1-0.3,0.2l0,0c0,0.1,0.1,0.2,0.2,0.2l0.4,0.1c0.2,0.1,0.5,0.1,0.7,0.2
									c0.5,0.1,1,0.2,1.5,0.4l1.5,0.4c0.5,0.1,1,0.2,1.5,0.1c-0.5,0.2-1,0.2-1.5,0.1c-0.5-0.1-1-0.2-1.5-0.3
									c-0.5-0.1-1-0.2-1.5-0.4c-0.2-0.1-0.5-0.2-0.7-0.3c-0.1,0-0.2-0.1-0.4-0.1c-0.1,0-0.1-0.1-0.2-0.1c0,0-0.1-0.1,0-0.2l0,0
									l0,0C12.7,9.9,12.8,9.9,12.9,9.8z"/>
							</g>
						</g>
						<g>
							<path class="st1" d="M11.7,20.6c-0.5,0.1-0.9,0.2-1.3,0.5c-0.2,0.1-0.4,0.3-0.5,0.5c-0.1,0.2-0.3,0.4-0.3,0.6
								c0,0.2,0.2,0.3,0.5,0.3c0.2,0,0.5,0.1,0.7,0.1c0.5,0,1,0,1.4-0.1c0.9-0.2,1.8-0.6,2.6-1.1c0.4-0.3,0.8-0.5,1.1-0.9
								c0.3-0.3,0.6-0.7,0.7-1.2l0.2,0.1c-0.4,0.3-0.7,0.5-1.2,0.7c-0.2,0.1-0.4,0.2-0.6,0.2c-0.2,0.1-0.5,0.1-0.7,0.1
								c-0.4,0-0.9,0-1.3,0C12.6,20.5,12.1,20.6,11.7,20.6z M11.7,20.6c0.4-0.1,0.9-0.2,1.3-0.3c0.4-0.1,0.9-0.1,1.3-0.1
								c0.4,0,0.8-0.2,1.2-0.3c0.4-0.2,0.7-0.4,1.1-0.7l0,0c0.1,0,0.1,0,0.2,0c0,0,0,0.1,0,0.1c-0.1,0.5-0.4,0.9-0.8,1.3
								c-0.4,0.3-0.8,0.6-1.2,0.8c-0.9,0.4-1.8,0.8-2.7,1.1c-0.5,0.1-1,0.2-1.5,0.2c-0.2,0-0.5,0-0.7-0.1c-0.1,0-0.3,0-0.4-0.1
								c-0.1-0.1-0.2-0.2-0.2-0.4c0-0.3,0.2-0.5,0.3-0.7c0.2-0.2,0.4-0.3,0.6-0.4C10.7,20.8,11.2,20.7,11.7,20.6z"/>
							<path class="st1" d="M11.9,20.5c0.2-0.2,0.5-0.3,0.7-0.3c0.3-0.1,0.5-0.1,0.8-0.2c0.2-0.1,0.5-0.2,0.7-0.3
								c0.1-0.1,0.2-0.2,0.3-0.2c0.1-0.1,0.3-0.1,0.4,0l0,0c0,0,0,0,0,0c0,0.3-0.2,0.5-0.4,0.5c0.2-0.1,0.4-0.3,0.3-0.5l0,0
								c-0.1,0-0.2,0-0.3,0.1c-0.1,0.1-0.2,0.2-0.3,0.2c-0.2,0.2-0.5,0.3-0.7,0.4c-0.3,0.1-0.5,0.1-0.8,0.1
								C12.4,20.3,12.2,20.3,11.9,20.5z"/>
						</g>
					</g>
					<g>
						<g>
							<g>
								<path class="st1" d="M10.3,30.7c0.1,0,0.2,0,0.2,0c0.1,0,0.2,0,0.2,0.1c-0.1,0-0.2,0-0.2,0C10.5,30.7,10.4,30.7,10.3,30.7z"
									/>
								<path class="st1" d="M10.3,31.1c0.1,0,0.2,0,0.2,0c0.1,0,0.1,0,0.2,0.1c-0.1,0-0.2,0-0.2,0C10.5,31.1,10.4,31.1,10.3,31.1z"
									/>
								<path class="st1" d="M10.2,31.5c0.1,0,0.2,0,0.2,0c0.1,0,0.1,0,0.2,0c-0.1,0-0.2,0-0.2,0C10.4,31.6,10.3,31.6,10.2,31.5z"/>
								<path class="st1" d="M10.1,31.9c0.1,0,0.2,0,0.2,0c0.1,0,0.1,0,0.2,0.1c-0.1,0-0.2,0-0.2,0C10.2,31.9,10.1,31.9,10.1,31.9z"
									/>
								<path class="st1" d="M10,32.2c0.1,0,0.1,0,0.2,0c0.1,0,0.1,0,0.2,0c-0.1,0-0.1,0-0.2,0C10.1,32.3,10,32.3,10,32.2z"/>
								<path class="st1" d="M9.9,32.7c0.1,0,0.2,0,0.3,0c0.1,0,0.2,0,0.2,0.1c-0.1,0-0.2,0-0.3,0C10,32.7,10,32.7,9.9,32.7z"/>
								<path class="st1" d="M9.8,33.2c0.1,0,0.1,0,0.2,0c0.1,0,0.1,0,0.2,0.1c-0.1,0-0.1,0-0.2,0C9.9,33.3,9.8,33.2,9.8,33.2z"/>
								<path class="st1" d="M9.8,33.7c0.1,0,0.2,0,0.4,0.1C10,33.8,9.9,33.8,9.8,33.7z"/>
								<path class="st1" d="M9.7,34.2c0.1,0,0.2,0,0.2,0c0.1,0,0.1,0,0.2,0.1c-0.1,0-0.2,0-0.2,0C9.8,34.2,9.7,34.2,9.7,34.2z"/>
								<path class="st1" d="M9.7,34.6c0.1,0,0.1,0,0.2,0c0.1,0,0.1,0.1,0.2,0.1c-0.1,0-0.1,0-0.2,0C9.8,34.7,9.7,34.6,9.7,34.6z"/>
								<path class="st1" d="M9.6,35.1c0.1,0,0.2,0.1,0.4,0.2C9.8,35.2,9.7,35.2,9.6,35.1z"/>
								<path class="st1" d="M9.3,35.7c0.1,0,0.2,0.1,0.4,0.1C9.6,35.9,9.4,35.8,9.3,35.7z"/>
								<path class="st1" d="M8.1,40.2c0.1-0.1,0.3,0,0.3,0.1C8.3,40.3,8.2,40.3,8.1,40.2z"/>
								<path class="st1" d="M8,40.9c0.1,0,0.1,0,0.2,0c0.1,0,0.1,0,0.2,0.1c-0.1,0-0.1,0-0.2,0C8.1,40.9,8,40.9,8,40.9z"/>
								<path class="st1" d="M8.3,39.4c0.1,0,0.2,0,0.3,0.1C8.5,39.6,8.4,39.5,8.3,39.4z"/>
								<path class="st1" d="M8,41.5c-0.1,0.5-0.2,1.1-0.3,1.6c-0.2,0.5-0.3,1-0.6,1.5c0.2-0.5,0.3-1,0.5-1.5
									C7.7,42.5,7.9,42,8,41.5z"/>
							</g>
							<path class="st1" d="M5.7,44.5c-0.4-0.1-0.7-0.1-1.1-0.1c-0.2,0-0.4,0-0.5,0c-0.1,0-0.2,0-0.2,0.1c-0.1,0-0.1,0.1-0.1,0.2
								l0,0c0.1,0.1,0.3,0.3,0.5,0.3c-0.2,0-0.4-0.1-0.5-0.3l0,0c0-0.1,0-0.2,0.1-0.3c0.1-0.1,0.2-0.1,0.3-0.1c0.2,0,0.4,0,0.6,0
								C5,44.3,5.4,44.4,5.7,44.5z"/>
						</g>
						<g>
							<g>
								<path class="st1" d="M12.6,11.2c0.2,0.1,0.3,0.1,0.5,0.2c0.2,0.1,0.3,0.1,0.5,0.2c-0.2,0-0.4,0-0.5-0.1
									C12.9,11.4,12.7,11.3,12.6,11.2z"/>
								<path class="st1" d="M12.5,11.7c0.1,0,0.3,0.1,0.4,0.1c0.1,0,0.3,0.1,0.4,0.1c-0.2,0-0.3,0-0.5,0
									C12.7,11.9,12.6,11.8,12.5,11.7z"/>
								<path class="st1" d="M12.2,12.2c0.2,0,0.3,0.1,0.5,0.1c0.2,0.1,0.3,0.1,0.5,0.2c-0.2,0-0.4,0-0.5-0.1
									C12.5,12.4,12.3,12.3,12.2,12.2z"/>
								<path class="st1" d="M12.1,13c0.2,0,0.3,0.1,0.5,0.1c0.2,0,0.3,0.1,0.5,0.1c-0.2,0-0.3,0-0.5-0.1
									C12.3,13.1,12.2,13.1,12.1,13z"/>
								<path class="st1" d="M12.1,13.7c0.2,0,0.3,0.1,0.5,0.1c0.1,0.1,0.3,0.1,0.5,0.2c-0.2,0-0.3,0-0.5-0.1
									C12.4,13.8,12.2,13.8,12.1,13.7z"/>
								<path class="st1" d="M11.8,14.2c0.2,0.1,0.4,0.2,0.6,0.2c0.2,0.1,0.4,0.1,0.6,0.2c-0.2,0-0.4-0.1-0.7-0.1
									C12.2,14.4,12,14.3,11.8,14.2z"/>
								<path class="st1" d="M11.7,14.8l1.1,0.3c-0.2,0-0.4,0-0.6-0.1C12,14.9,11.8,14.9,11.7,14.8z"/>
								<path class="st1" d="M11.5,15.2c0.2,0.1,0.4,0.1,0.6,0.2c0.2,0.1,0.4,0.1,0.6,0.2c-0.2,0-0.4-0.1-0.6-0.1
									C11.9,15.4,11.7,15.3,11.5,15.2z"/>
								<path class="st1" d="M11.3,15.8l1.3,0.4c-0.2,0-0.4-0.1-0.7-0.1C11.7,16,11.5,16,11.3,15.8z"/>
								<path class="st1" d="M11.3,16.3c0.3,0.2,0.7,0.4,1.1,0.5C12,16.8,11.6,16.6,11.3,16.3z"/>
								<path class="st1" d="M11.1,17.1c0.2,0.1,0.4,0.1,0.5,0.2c0.2,0.1,0.4,0.1,0.6,0.1c-0.2,0-0.4,0-0.6,0
									C11.4,17.3,11.2,17.2,11.1,17.1z"/>
								<path class="st1" d="M10.8,17.6c0.2,0.1,0.4,0.1,0.6,0.2c0.2,0.1,0.4,0.1,0.6,0.2c-0.2,0-0.4,0-0.6-0.1
									C11.2,17.8,11,17.7,10.8,17.6z"/>
								<path class="st1" d="M10.7,18.2l1.1,0.3c-0.2,0-0.4,0-0.6-0.1C11.1,18.4,10.9,18.4,10.7,18.2z"/>
								<path class="st1" d="M10.5,18.7c0.2,0.1,0.4,0.1,0.6,0.2l0.6,0.2c-0.2,0-0.4-0.1-0.7-0.1C10.9,18.9,10.7,18.8,10.5,18.7z"/>
								<path class="st1" d="M10.3,19.4c0.2,0.1,0.4,0.1,0.7,0.2c0.2,0.1,0.4,0.1,0.7,0.2c-0.2,0-0.5,0-0.7-0.1
									C10.8,19.6,10.5,19.5,10.3,19.4z"/>
								<path class="st1" d="M10.2,19.9c0.2,0.1,0.4,0.2,0.7,0.2c0.2,0.1,0.5,0.1,0.7,0.1c-0.2,0-0.5,0-0.7-0.1
									C10.6,20.2,10.4,20.1,10.2,19.9z"/>
								<path class="st1" d="M10,20.5c0.2,0.1,0.4,0.1,0.7,0.2c0.2,0.1,0.4,0.1,0.7,0.2c-0.2,0-0.5,0-0.7-0.1
									C10.4,20.8,10.2,20.7,10,20.5z"/>
								<path class="st1" d="M10,21.1c0.2,0.1,0.4,0.2,0.6,0.2c0.2,0.1,0.4,0.1,0.6,0.2c-0.2,0-0.4,0-0.6-0.1
									C10.4,21.3,10.2,21.3,10,21.1z"/>
								<path class="st1" d="M10,21.9c0.2,0,0.4,0.1,0.5,0.1c0.2,0,0.4,0.1,0.5,0.1c-0.2,0-0.4,0-0.6,0C10.3,22.1,10.1,22,10,21.9z"
									/>
								<path class="st1" d="M9.8,22.3c0.2,0.1,0.4,0.1,0.6,0.2c0.2,0.1,0.4,0.1,0.6,0.1c-0.2,0-0.4,0-0.7-0.1
									C10.2,22.5,10,22.4,9.8,22.3z"/>
								<path class="st1" d="M9.6,22.7c0.3,0.1,0.5,0.2,0.8,0.2c0.3,0.1,0.5,0.1,0.8,0.1c-0.3,0-0.5,0-0.8,0
									C10,22.9,9.8,22.9,9.6,22.7z"/>
								<path class="st1" d="M9.4,23.2c0.3,0.1,0.5,0.2,0.8,0.2c0.3,0.1,0.6,0.1,0.8,0.2c-0.3,0-0.6,0-0.9-0.1
									C9.9,23.5,9.7,23.4,9.4,23.2z"/>
								<path class="st1" d="M9.5,23.8c0.3,0.1,0.5,0.1,0.8,0.2c0.3,0.1,0.5,0.1,0.8,0.2c-0.3,0-0.6-0.1-0.8-0.1
									C10,24,9.7,23.9,9.5,23.8z"/>
								<path class="st1" d="M9.3,24.5c0.6,0.2,1.2,0.3,1.8,0.3C10.5,24.9,9.9,24.8,9.3,24.5z"/>
								<path class="st1" d="M9.3,25c0.3,0.1,0.6,0.2,0.9,0.2c0.3,0.1,0.6,0.1,0.9,0.1c-0.3,0-0.6,0-0.9,0C9.8,25.2,9.5,25.1,9.3,25
									z"/>
								<path class="st1" d="M9,25.5c0.5,0.3,1.1,0.5,1.7,0.5C10.1,26.1,9.5,26,9,25.5z"/>
								<path class="st1" d="M8.8,26.2c0.6,0.3,1.2,0.4,1.9,0.4C10,26.8,9.3,26.6,8.8,26.2z"/>
								<path class="st1" d="M8.9,26.8c0.3,0.1,0.5,0.1,0.8,0.2c0.3,0.1,0.5,0.1,0.8,0.2c-0.3,0-0.6-0.1-0.8-0.1
									C9.4,27,9.1,26.9,8.9,26.8z"/>
								<path class="st1" d="M8.8,27.3c0.3,0.1,0.5,0.2,0.8,0.2c0.3,0.1,0.5,0.1,0.8,0.1c-0.3,0-0.5,0-0.8-0.1
									C9.3,27.6,9.1,27.5,8.8,27.3z"/>
								<path class="st1" d="M9.1,28c0.3,0,0.5,0.1,0.7,0.1c0.2,0,0.5,0.1,0.7,0.1c-0.3,0-0.5,0-0.8,0C9.6,28.1,9.4,28.1,9.1,28z"/>
								<path class="st1" d="M9.4,28.6c0.4,0.1,0.8,0.2,1.2,0.2C10.2,28.9,9.8,28.8,9.4,28.6z"/>
								<path class="st1" d="M9.2,29.1c0.3,0,0.6,0.1,0.8,0.1c0.3,0,0.6,0.1,0.8,0.1c-0.3,0-0.6,0-0.9,0C9.8,29.2,9.5,29.2,9.2,29.1
									z"/>
							</g>
							<path class="st1" d="M12.2,29.1c0,0.1,0.2,0.2,0.3,0.3c0.1,0,0.3,0.1,0.4,0c0.3,0,0.5-0.2,0.7-0.4c0.2-0.2,0.3-0.4,0.4-0.7
								c0.1-0.2,0.1-0.5,0-0.8l0,0c0,0-0.1,0-0.1,0l-0.1,0.1l-0.3,0.2l-0.5,0.3c-0.2,0.1-0.4,0.2-0.5,0.4
								C12.3,28.7,12.2,28.9,12.2,29.1z M12.2,29.1c0-0.2,0.1-0.4,0.2-0.6c0.1-0.2,0.3-0.3,0.5-0.4l0.5-0.3l0.3-0.2l0.1-0.1
								c0,0,0.1-0.1,0.2,0l0,0l0,0c0.1,0.3,0.1,0.6,0,0.8c-0.1,0.3-0.3,0.5-0.4,0.7c-0.2,0.2-0.4,0.4-0.7,0.4c-0.1,0-0.3,0-0.4,0
								C12.3,29.3,12.2,29.2,12.2,29.1z"/>
							<g>
								<path class="st1" d="M14.3,24.8c0,0.1-0.1,0.2,0,0.2c0,0.1,0.1,0.1,0.1,0.1c0.1,0,0.1-0.1,0.1-0.1
									C14.4,24.9,14.4,24.9,14.3,24.8z M14.3,24.8c0.1,0,0.2,0,0.2,0.1c0.1,0.1,0,0.2-0.1,0.2c0,0-0.1,0-0.1,0
									c0,0-0.1-0.1-0.1-0.1C14.2,25,14.3,24.9,14.3,24.8z"/>
								<path class="st1" d="M14.9,24.3c-0.1,0-0.2,0-0.2,0.1c0,0.1,0.1,0.2,0.1,0.2c0.1,0,0.2,0,0.2,0C15,24.4,14.9,24.3,14.9,24.3
									z M14.9,24.3c0.1,0,0.2,0.1,0.1,0.2c0,0.1-0.1,0.1-0.1,0.1c-0.1,0-0.1,0-0.2,0c-0.1,0-0.2-0.2-0.1-0.3
									C14.7,24.2,14.8,24.2,14.9,24.3z"/>
								<path class="st1" d="M14.1,24.7C14.1,24.7,14.1,24.7,14.1,24.7C14.1,24.7,14.1,24.7,14.1,24.7
									C14.1,24.7,14.1,24.7,14.1,24.7C14.1,24.7,14.1,24.7,14.1,24.7z M14.1,24.7C14.1,24.7,14.1,24.7,14.1,24.7
									C14,24.7,14,24.7,14.1,24.7C14.1,24.6,14.1,24.7,14.1,24.7C14.1,24.7,14.1,24.7,14.1,24.7z"/>
								<path class="st1" d="M14.4,22.7c0,0,0.1,0.1,0.2,0l0,0c0,0,0.1-0.1,0.1-0.2l0,0c0,0-0.1-0.1-0.1-0.1l0,0
									C14.5,22.6,14.5,22.7,14.4,22.7z M14.4,22.7c0-0.1,0.1-0.1,0.1-0.2c0,0,0,0,0,0l0,0c0.1,0,0.1,0,0.1,0.1c0,0,0,0,0,0
									c0,0.1,0,0.2-0.1,0.2l0,0c0,0,0,0,0,0C14.5,22.8,14.5,22.8,14.4,22.7z"/>
								<path class="st1" d="M12.6,25.5c-0.1-0.1-0.3-0.1-0.4-0.1l0,0c-0.1,0.1-0.1,0.3,0,0.4c0.1,0.1,0.3,0.1,0.4,0.1l0,0
									c0,0,0,0,0,0c0,0,0,0,0,0c0,0.1,0,0.2,0.1,0.2c0.1,0,0.2,0,0.2,0c0.2-0.1,0.3-0.2,0.3-0.4c0,0.2-0.1,0.4-0.3,0.5
									c-0.1,0-0.2,0-0.3,0c-0.1-0.1-0.2-0.2-0.1-0.3l0.1,0c-0.1,0.1-0.3,0-0.5-0.1c-0.1-0.1-0.1-0.3,0-0.4c0,0,0,0,0,0
									C12.4,25.3,12.5,25.4,12.6,25.5z"/>
								<path class="st1" d="M13.3,25.1c0.1,0,0.1-0.1,0.1-0.2c0-0.1-0.1-0.1-0.2-0.1c-0.1,0-0.1,0.1-0.1,0.2
									C13.1,25,13.2,25.1,13.3,25.1z M13.3,25.1c-0.1,0-0.2,0-0.2-0.1c0,0,0-0.1,0-0.2c0,0,0.1-0.1,0.1-0.1c0.1,0,0.1,0,0.2,0
									c0,0,0.1,0.1,0.1,0.1C13.4,25,13.3,25.1,13.3,25.1z"/>
							</g>
						</g>
					</g>
				</g>
			</g>
			<g>
				<g>
					<g>
						<g>
							<g>
								<g>
									<g>
										<g>
											<path class="st1" d="M30.3,47.1c-0.3-0.1-0.6-0.3-0.8-0.5c-0.1-0.1-0.2-0.3-0.3-0.4c-0.1-0.2-0.1-0.3-0.1-0.5l-0.5-1.9
												l-0.5-2.1L28,41.3l-0.3-1.2c-0.3-1.2-0.6-2.5-0.9-3.8l-0.9-3.6l-0.5,0.1c0.5,2.5,1,4.9,1.5,7.4l0.3,1.6l0.1,0.5l0.3,1.7
												l0.4,1.9c0.1,0.3,0.1,0.6,0.1,0.9c0,0.3-0.1,0.7-0.4,0.8c0.3-0.2,0.4-0.5,0.4-0.8c0-0.3-0.1-0.6-0.2-0.9L27.6,44
												l-0.4-1.6l-0.1-0.5l-0.4-1.7c-0.6-2.5-1.1-5-1.6-7.5c0-0.1,0-0.2,0.1-0.2l0.8-0.2c0.1,0,0.2,0,0.2,0.1l0.9,3.8
												c0.3,1.3,0.6,2.5,0.9,3.8l0.2,1.1l0.1,0.5l0.5,2.2l0.4,1.9C29.2,46.4,29.7,46.9,30.3,47.1z"/>
										</g>
									</g>
									<g>
										<path class="st1" d="M28.2,46.8c-0.7,0.2-1.5,0.5-2.2,0.7c-0.4,0.1-0.7,0.3-1,0.5c-0.2,0.1-0.3,0.2-0.4,0.3
											c-0.1,0.1-0.1,0.1-0.1,0.2c0,0.1,0.1,0.1,0.1,0.1c0.3,0.1,0.7,0.2,1.1,0.2c0.4,0,0.8,0,1.2,0c0.8-0.1,1.5-0.2,2.3-0.4
											c0.8-0.2,1.5-0.4,2.2-0.6c0.4-0.1,0.7-0.3,1.1-0.4c0.3-0.2,0.7-0.3,1-0.6c0.3-0.3-0.2-0.4-0.5-0.5c-0.4-0.1-0.8,0-1.2,0
											c-0.8,0-1.5,0.1-2.3,0.2c0,0,0,0,0,0c0,0,0,0,0,0c0.8-0.2,1.5-0.3,2.3-0.4c0.4,0,0.8,0,1.2,0c0.2,0,0.4,0.1,0.6,0.2
											c0.1,0,0.1,0.1,0.1,0.1c0,0.1,0.1,0.1,0.1,0.2c0,0.2-0.1,0.2-0.2,0.3c-0.3,0.3-0.7,0.5-1,0.6c-0.4,0.2-0.7,0.3-1.1,0.4
											c-0.7,0.2-1.5,0.4-2.3,0.6c-0.8,0.1-1.5,0.3-2.3,0.4c-0.4,0-0.8,0.1-1.2,0.1c-0.4,0-0.8,0-1.2-0.1c-0.1,0-0.2-0.1-0.2-0.3
											c0-0.1,0.1-0.3,0.1-0.3c0.1-0.2,0.3-0.3,0.5-0.4c0.3-0.2,0.7-0.3,1.1-0.5C26.7,47.1,27.4,46.9,28.2,46.8
											C28.2,46.8,28.2,46.8,28.2,46.8C28.2,46.8,28.2,46.8,28.2,46.8z"/>
										<path class="st1" d="M33.6,46.3c0.2,0.1,0.3,0.4,0.2,0.6c0,0.2-0.2,0.4-0.4,0.5c-0.4,0.2-0.8,0.4-1.2,0.6
											c-0.8,0.3-1.7,0.5-2.5,0.7c-0.9,0.2-1.7,0.3-2.6,0.4c-0.9,0.1-1.8,0.1-2.6,0l0,0l0,0c-0.1-0.1-0.1-0.2-0.2-0.3
											c0-0.1,0-0.3,0-0.4c0,0.1,0,0.2,0,0.4c0,0.1,0.1,0.2,0.2,0.3l0,0c0.9,0.1,1.7,0,2.6-0.1c0.9-0.1,1.7-0.3,2.6-0.5
											c0.9-0.2,1.7-0.4,2.5-0.7c0.4-0.1,0.8-0.3,1.2-0.5c0.2-0.1,0.4-0.2,0.4-0.5C33.8,46.7,33.8,46.4,33.6,46.3z"/>
									</g>
								</g>
								<g>
									<g>
										<path class="st1" d="M18.2,13.3c1,4.2,1.8,8.4,2.6,12.5c0.2,1,0.3,2.1,0.6,3.1c0.3,1,0.6,2,1.3,2.8
											c0.3,0.4,0.8,0.7,1.3,0.8c0.1,0,0.3,0.1,0.4,0.1c0.1,0,0.3,0,0.4,0c0.3,0,0.5,0,0.8-0.1c0.5-0.1,1-0.3,1.4-0.6
											c0.4-0.3,0.7-0.8,0.8-1.2c0.3-1,0.2-2.1,0.1-3.1c-0.1-1-0.4-2.1-0.7-3.1c-0.5-2.1-1.1-4.1-1.6-6.2c-0.5-2.1-1-4.1-1.5-6.2
											l0-0.1c0,0,0,0,0,0c0.1,0-0.1,0-0.1,0c-0.1,0-0.2,0-0.4,0c-0.2,0-0.5,0.1-0.8,0.1c-0.5,0.1-1.1,0.1-1.6,0.2l-1.6,0.3
											C19.2,12.9,18.6,13,18.2,13.3z M18.2,13.3c0.5-0.3,1-0.5,1.5-0.6c0.5-0.1,1-0.3,1.6-0.4c0.5-0.1,1.1-0.2,1.6-0.3
											c0.3,0,0.5-0.1,0.8-0.1c0.1,0,0.3,0,0.4,0l0.1,0c0,0,0.1,0,0.2,0c0.1,0,0.1,0.1,0.1,0.2l0,0.1c0.6,2.1,1.1,4.1,1.6,6.2
											c0.5,2.1,1,4.1,1.6,6.2c0.1,0.5,0.3,1,0.4,1.6c0.1,0.5,0.2,1.1,0.3,1.6c0.1,1.1,0.2,2.2-0.2,3.2c-0.2,0.5-0.5,1-1,1.3
											l-0.2,0.1l-0.2,0.1c-0.1,0.1-0.3,0.1-0.4,0.2c-0.3,0.1-0.5,0.2-0.8,0.2c-0.3,0.1-0.5,0.1-0.8,0.1c-0.1,0-0.3,0-0.4,0
											c-0.1,0-0.3,0-0.4-0.1c-0.3-0.1-0.5-0.2-0.7-0.3c-0.2-0.2-0.4-0.3-0.6-0.5c-0.4-0.4-0.6-0.9-0.9-1.4
											c-0.2-0.5-0.4-1-0.6-1.5c-0.3-1-0.5-2.1-0.8-3.1C19.5,21.6,18.8,17.4,18.2,13.3z"/>
									</g>
									<path class="st1" d="M23.9,12c0.1,0.1,0.2,0.1,0.3,0.2l0,0l0,0c0.1,0.1,0,0.2,0,0.2c0,0.1-0.1,0.1-0.2,0.1
										c-0.1,0.1-0.2,0.1-0.4,0.1c-0.2,0.1-0.5,0.2-0.7,0.3c-0.5,0.2-1,0.3-1.5,0.4c-0.5,0.1-1,0.2-1.5,0.3
										c-0.5,0.1-1.1,0.1-1.5-0.1c0.5,0.1,1,0,1.5-0.1l1.5-0.3c0.5-0.1,1-0.2,1.5-0.3c0.2-0.1,0.5-0.1,0.7-0.2l0.4-0.1
										c0.1,0,0.2-0.1,0.2-0.2l0,0C24,12.1,23.9,12,23.9,12z"/>
								</g>
							</g>
							<path class="st1" d="M21.5,24.4c0.5,0.5,1.1,1,1.7,1.3c0.3,0.2,0.6,0.3,1,0.4c0.3,0.1,0.7,0.2,1,0.2c0.3,0.1,0.7,0.1,1.1,0.1
								c0.4,0,0.7-0.1,1.1,0c0.1,0,0.2,0,0.3,0.1c0.1,0,0.2,0.1,0.2,0.2c0.1,0.2,0,0.4-0.1,0.6c-0.1,0.3-0.5,0.6-0.8,0.7
								c-0.3,0.1-0.7,0.2-1.1,0.2c-0.4,0-0.7,0-1.1-0.1c-0.7-0.2-1.4-0.5-2-0.9c-0.6-0.4-1.1-1-1.5-1.6c-0.2-0.3-0.4-0.6-0.6-0.9
								c-0.1-0.1-0.3-0.3-0.4-0.4c-0.1-0.1-0.1-0.2-0.1-0.3c0-0.1,0-0.2,0-0.3l0,0c0,0,0,0,0,0c0.3,0,0.5,0.2,0.7,0.3
								C21.2,24.1,21.3,24.3,21.5,24.4z M21.5,24.4c-0.2-0.2-0.3-0.4-0.5-0.5c-0.2-0.1-0.4-0.3-0.6-0.3l0,0c-0.1,0.1,0,0.3,0.1,0.4
								c0.1,0.1,0.2,0.2,0.4,0.4c0.3,0.3,0.5,0.6,0.7,0.9c0.2,0.3,0.4,0.6,0.7,0.8c0.2,0.3,0.5,0.5,0.8,0.7c0.6,0.4,1.2,0.8,1.9,0.9
								c0.3,0.1,0.7,0.2,1,0.2c0.3,0,0.7,0,1-0.1c0.3-0.1,0.6-0.3,0.8-0.6c0.1-0.2,0.1-0.3,0-0.5c0-0.2-0.2-0.2-0.4-0.2
								c-0.4,0-0.7,0-1.1,0.1c-0.4,0-0.7,0-1.1,0c-0.7-0.1-1.4-0.4-2-0.7c-0.3-0.2-0.6-0.4-0.9-0.6C22,25,21.7,24.7,21.5,24.4z"/>
						</g>
					</g>
					<g>
						<g>
							<path class="st1" d="M25.4,48.6c-0.2,0-0.2-0.2-0.1-0.3c0.1-0.1,0.2-0.2,0.3-0.2c0.2-0.1,0.5-0.3,0.7-0.4
								c0.5-0.2,1-0.4,1.5-0.5c-0.5,0.2-1,0.3-1.5,0.5c-0.2,0.1-0.5,0.2-0.7,0.3c-0.1,0.1-0.2,0.1-0.3,0.2c0,0-0.1,0.1-0.1,0.2
								C25.3,48.5,25.4,48.6,25.4,48.6z"/>
							<g>
								<path class="st1" d="M25.3,33.1C25.2,33.1,25.3,33.1,25.3,33.1l0.1,0c0.1,0,0.1,0,0.2,0c0.1,0,0.2-0.1,0.4-0.1
									c-0.1,0.1-0.2,0.1-0.3,0.2c-0.1,0-0.1,0-0.2,0C25.4,33.1,25.3,33.1,25.3,33.1C25.3,33.1,25.3,33.1,25.3,33.1
									C25.2,33.1,25.3,33.1,25.3,33.1z"/>
								<path class="st1" d="M25.4,33.4c0.1,0,0.2-0.1,0.3-0.1c0.1,0,0.2-0.1,0.3-0.1c-0.1,0.1-0.2,0.1-0.3,0.2
									C25.6,33.4,25.5,33.4,25.4,33.4z"/>
								<path class="st1" d="M25.5,33.8c0.2,0,0.4-0.1,0.6-0.2C25.9,33.7,25.7,33.8,25.5,33.8z"/>
								<path class="st1" d="M25.7,34.1c0.1-0.1,0.2-0.1,0.3-0.1c0.1,0,0.2-0.1,0.3-0.1C26.2,33.9,26.1,34,26,34
									C25.9,34.1,25.8,34.1,25.7,34.1z"/>
								<path class="st1" d="M25.7,34.4c0.2-0.1,0.4-0.1,0.6-0.2C26.1,34.4,25.9,34.5,25.7,34.4z"/>
								<path class="st1" d="M25.8,34.8c0.1-0.1,0.2-0.1,0.3-0.1c0.1,0,0.2-0.1,0.3-0.1c-0.1,0.1-0.2,0.1-0.3,0.2
									C26,34.8,25.9,34.8,25.8,34.8z"/>
								<path class="st1" d="M25.9,35.2l0.7-0.2c-0.1,0.1-0.2,0.2-0.3,0.2C26.1,35.2,26,35.2,25.9,35.2z"/>
								<path class="st1" d="M26,35.7c0.2-0.1,0.4-0.1,0.6-0.2C26.4,35.6,26.2,35.7,26,35.7z"/>
								<path class="st1" d="M26.2,36.1c0.2-0.1,0.4-0.1,0.6-0.2C26.6,36,26.4,36.1,26.2,36.1z"/>
								<path class="st1" d="M26.3,36.8c0.1,0,0.2-0.1,0.2-0.1c0.1,0,0.2,0,0.2,0c-0.1,0.1-0.1,0.1-0.2,0.1
									C26.5,36.9,26.4,36.9,26.3,36.8z"/>
								<path class="st1" d="M26.5,37.3c0.1,0,0.1-0.1,0.2-0.1c0.1,0,0.1-0.1,0.2-0.1c0,0.1-0.1,0.1-0.2,0.1
									C26.7,37.3,26.6,37.3,26.5,37.3z"/>
								<path class="st1" d="M26.7,37.8c0.1,0,0.1-0.1,0.2-0.1c0.1,0,0.1,0,0.2-0.1c-0.1,0.1-0.1,0.1-0.2,0.1
									C26.8,37.8,26.8,37.8,26.7,37.8z"/>
								<path class="st1" d="M27.7,43.7c0.3-0.1,0.5-0.2,0.8-0.3c-0.1,0.1-0.2,0.2-0.3,0.2C28,43.7,27.8,43.8,27.7,43.7z"/>
								<path class="st1" d="M27.6,43c0.2-0.1,0.3-0.1,0.5-0.2C28,43,27.8,43.1,27.6,43z"/>
								<path class="st1" d="M27.5,42.5c0.1,0,0.2-0.1,0.4-0.1C27.8,42.6,27.6,42.6,27.5,42.5z"/>
								<path class="st1" d="M27.9,44.3c0.2,0,0.4-0.1,0.6-0.1C28.4,44.3,28.1,44.4,27.9,44.3z"/>
								<path class="st1" d="M28,44.7c0.2,0,0.3-0.1,0.5-0.1C28.4,44.7,28.2,44.8,28,44.7z"/>
								<path class="st1" d="M28.1,45.2c0.2-0.1,0.3-0.1,0.5-0.2C28.5,45.1,28.3,45.2,28.1,45.2z"/>
								<path class="st1" d="M28.2,45.7c0.2,0,0.3-0.1,0.5-0.1C28.6,45.7,28.4,45.8,28.2,45.7z"/>
								<path class="st1" d="M28.4,47.6c0.4,0,0.7,0,1-0.2C29.2,47.7,28.7,47.8,28.4,47.6z"/>
							</g>
						</g>
						<g>
							<g>
								<g>
									<path class="st1" d="M18.5,14c0.2,0,0.5,0,0.7,0c0.2,0,0.5-0.1,0.7-0.1C19.7,14,19.5,14,19.3,14C19,14.1,18.8,14.1,18.5,14
										z"/>
									<path class="st1" d="M18.8,14.4c0.2,0,0.4,0,0.6,0c0.2,0,0.4,0,0.6-0.1c-0.2,0.1-0.4,0.1-0.5,0.2
										C19.2,14.4,19,14.4,18.8,14.4z"/>
									<path class="st1" d="M18.9,14.8c0.2,0,0.4,0,0.6-0.1c0.2,0,0.4-0.1,0.6-0.1c-0.2,0.1-0.4,0.1-0.6,0.2
										C19.3,14.9,19.1,14.9,18.9,14.8z"/>
									<path class="st1" d="M19,15.3c0.2,0,0.4,0,0.5-0.1c0.2,0,0.4-0.1,0.5-0.1c-0.2,0.1-0.3,0.1-0.5,0.2
										C19.4,15.4,19.2,15.4,19,15.3z"/>
									<path class="st1" d="M19.2,16c0.2,0,0.4,0,0.5-0.1c0.2,0,0.4-0.1,0.5-0.1c-0.2,0.1-0.3,0.1-0.5,0.2
										C19.6,16,19.4,16,19.2,16z"/>
									<path class="st1" d="M19.2,16.5c0.4,0,0.7-0.1,1.1-0.2C20,16.6,19.6,16.6,19.2,16.5z"/>
									<path class="st1" d="M19.5,17.1c0.1-0.1,0.3-0.1,0.4-0.1c0.1,0,0.3-0.1,0.4-0.1c-0.1,0.1-0.3,0.1-0.4,0.2
										C19.8,17.1,19.6,17.2,19.5,17.1z"/>
									<path class="st1" d="M19.4,17.6c0.2,0,0.4-0.1,0.6-0.1c0.2,0,0.4-0.1,0.6-0.1c-0.2,0.1-0.4,0.2-0.6,0.2
										C19.8,17.6,19.6,17.6,19.4,17.6z"/>
									<path class="st1" d="M19.5,18.2c0.4,0,0.7-0.1,1-0.3C20.2,18.1,19.9,18.2,19.5,18.2z"/>
									<path class="st1" d="M19.5,18.7c0.2,0,0.4,0,0.6-0.1c0.2,0,0.4-0.1,0.6-0.1c-0.2,0.1-0.4,0.1-0.6,0.2
										C19.9,18.7,19.7,18.7,19.5,18.7z"/>
									<path class="st1" d="M19.6,19.1c0.4,0,0.8-0.1,1.1-0.2C20.5,19.1,20,19.2,19.6,19.1z"/>
									<path class="st1" d="M19.7,19.6c0.2,0,0.4-0.1,0.6-0.1c0.2,0,0.4-0.1,0.6-0.1c-0.2,0.1-0.4,0.2-0.6,0.2
										C20.1,19.6,19.9,19.6,19.7,19.6z"/>
									<path class="st1" d="M19.7,20.1c0.2,0,0.3-0.1,0.5-0.1c0.2,0,0.3-0.1,0.5-0.1c-0.1,0.1-0.3,0.2-0.5,0.2
										C20.1,20.2,19.9,20.2,19.7,20.1z"/>
									<path class="st1" d="M20,20.7c0.2-0.1,0.3-0.1,0.5-0.2c0.2,0,0.3-0.1,0.5-0.1c-0.1,0.1-0.3,0.1-0.5,0.2
										C20.3,20.7,20.1,20.7,20,20.7z"/>
									<path class="st1" d="M20,21.1c0.2,0,0.3-0.1,0.5-0.1c0.2,0,0.3-0.1,0.5-0.1c-0.1,0.1-0.3,0.2-0.5,0.2
										C20.4,21.1,20.2,21.1,20,21.1z"/>
									<path class="st1" d="M20.2,21.7c0.2,0,0.3-0.1,0.5-0.1c0.2,0,0.3-0.1,0.5-0.1c-0.1,0.1-0.3,0.2-0.4,0.2
										C20.5,21.7,20.3,21.7,20.2,21.7z"/>
									<path class="st1" d="M20.3,22.4c0.2-0.1,0.3-0.1,0.5-0.2c0.2,0,0.3-0.1,0.5-0.2c-0.1,0.1-0.3,0.2-0.5,0.2
										C20.6,22.4,20.5,22.4,20.3,22.4z"/>
									<path class="st1" d="M20.2,22.9c0.2-0.1,0.4-0.1,0.6-0.2c0.2,0,0.4-0.1,0.6-0.1c-0.2,0.1-0.4,0.1-0.6,0.2
										C20.6,22.9,20.4,22.9,20.2,22.9z"/>
									<path class="st1" d="M20.2,23.5c0.2-0.1,0.4-0.1,0.6-0.2c0.2-0.1,0.4-0.1,0.6-0.2c-0.2,0.1-0.4,0.2-0.6,0.3
										C20.6,23.5,20.4,23.5,20.2,23.5z"/>
									<path class="st1" d="M20.6,24c0.2,0,0.3-0.1,0.5-0.1c0.2,0,0.3-0.1,0.5-0.1c-0.1,0.1-0.3,0.2-0.5,0.2
										C20.9,24,20.7,24,20.6,24z"/>
									<path class="st1" d="M20.7,24.6c0.2,0,0.3-0.1,0.5-0.1c0.2,0,0.3-0.1,0.5-0.1c-0.1,0.1-0.3,0.1-0.5,0.2
										C21,24.6,20.9,24.6,20.7,24.6z"/>
									<path class="st1" d="M20.9,25.2c0.2,0,0.4-0.1,0.6-0.1c0.2-0.1,0.4-0.1,0.6-0.2c-0.2,0.1-0.3,0.2-0.5,0.3
										C21.3,25.2,21.1,25.2,20.9,25.2z"/>
									<path class="st1" d="M20.9,25.9c0.2-0.1,0.4-0.1,0.7-0.2c0.2-0.1,0.4-0.1,0.6-0.2c-0.2,0.1-0.4,0.2-0.6,0.3
										C21.3,25.8,21.1,25.9,20.9,25.9z"/>
									<path class="st1" d="M21,26.5c0.2-0.1,0.4-0.2,0.6-0.2c0.2-0.1,0.4-0.1,0.7-0.1c-0.2,0.1-0.4,0.2-0.6,0.2
										C21.4,26.4,21.2,26.4,21,26.5z"/>
									<path class="st1" d="M21.3,26.9c0.2-0.1,0.4-0.1,0.6-0.2c0.2-0.1,0.4-0.1,0.6-0.2c-0.2,0.1-0.4,0.2-0.5,0.3
										C21.7,26.9,21.5,26.9,21.3,26.9z"/>
									<path class="st1" d="M21.3,27.4c0.4,0,0.9-0.1,1.3-0.3C22.2,27.4,21.8,27.5,21.3,27.4z"/>
									<path class="st1" d="M21.5,27.9c0.2,0,0.5-0.1,0.7-0.1c0.2,0,0.5-0.1,0.7-0.2c-0.2,0.1-0.4,0.2-0.7,0.2
										C22,27.9,21.8,27.9,21.5,27.9z"/>
									<path class="st1" d="M21.7,28.4c0.2-0.1,0.4-0.1,0.7-0.2c0.2-0.1,0.4-0.1,0.7-0.2c-0.2,0.1-0.4,0.2-0.6,0.3
										C22.1,28.4,21.9,28.4,21.7,28.4z"/>
									<path class="st1" d="M21.8,28.9c0.4,0,0.9-0.1,1.3-0.2C22.7,28.9,22.3,29,21.8,28.9z"/>
									<path class="st1" d="M22.1,29.5c0.2,0,0.4-0.1,0.6-0.2c0.2-0.1,0.4-0.1,0.6-0.2c-0.2,0.1-0.4,0.2-0.6,0.3
										C22.6,29.5,22.3,29.5,22.1,29.5z"/>
									<path class="st1" d="M22.4,29.9c0.2-0.1,0.5-0.1,0.7-0.2c0.2-0.1,0.4-0.1,0.7-0.2c-0.2,0.1-0.4,0.2-0.7,0.3
										C22.9,29.9,22.6,29.9,22.4,29.9z"/>
									<path class="st1" d="M22.6,30.4c0.2-0.1,0.5-0.1,0.7-0.2c0.2-0.1,0.4-0.2,0.7-0.3c-0.2,0.2-0.4,0.3-0.6,0.4
										C23.1,30.3,22.8,30.4,22.6,30.4z"/>
									<path class="st1" d="M22.6,30.9c0.6,0,1.2-0.1,1.7-0.4C23.8,30.9,23.2,31,22.6,30.9z"/>
									<path class="st1" d="M22.9,31.3c0.3,0,0.6,0,0.8-0.1c0.3,0,0.5-0.1,0.8-0.2c-0.3,0.1-0.5,0.2-0.8,0.3
										C23.5,31.3,23.2,31.3,22.9,31.3z"/>
									<path class="st1" d="M23.4,31.6c0.5,0,0.9-0.2,1.3-0.3c-0.2,0.1-0.4,0.2-0.6,0.3C23.9,31.7,23.6,31.7,23.4,31.6z"/>
									<path class="st1" d="M24,32.1c0.2-0.1,0.3-0.1,0.5-0.1c0.2,0,0.3-0.1,0.5-0.1c-0.1,0.1-0.3,0.2-0.5,0.2
										C24.3,32,24.2,32.1,24,32.1z"/>
									<path class="st1" d="M24.8,32.4c0.1,0,0.3-0.1,0.4-0.1c0.1,0,0.3-0.1,0.4-0.2c-0.1,0.1-0.2,0.2-0.4,0.2
										C25.1,32.4,25,32.4,24.8,32.4z"/>
								</g>
								<path class="st1" d="M26.6,30.5c0.2,0.1,0.5,0,0.6-0.2c0.1-0.2,0.2-0.4,0.2-0.7c0.1-0.5,0-1,0-1.4c-0.1-0.5-0.2-0.9-0.3-1.4
									c-0.1-0.2-0.2-0.4-0.3-0.6c-0.1-0.1-0.2-0.2-0.3-0.2c-0.1,0-0.2,0-0.2,0.1l0,0c0.2,0.7,0.3,1.5,0.3,2.2c0,0.4,0,0.8-0.1,1.1
									c0,0.2-0.1,0.4-0.1,0.6C26.4,30.2,26.4,30.4,26.6,30.5z M26.6,30.5c-0.2-0.1-0.2-0.3-0.2-0.5c0-0.2,0.1-0.4,0.1-0.6
									c0.1-0.4,0.1-0.7,0.1-1.1c0-0.8-0.1-1.5-0.4-2.2l0,0c0-0.1,0-0.2,0.1-0.2c0.1,0,0.1,0,0.2,0c0.1,0,0.2,0.1,0.3,0.2
									c0.1,0.2,0.2,0.4,0.3,0.7c0.1,0.5,0.2,0.9,0.3,1.4c0.1,0.5,0.1,1,0,1.4c0,0.2-0.1,0.5-0.2,0.7
									C27.1,30.5,26.8,30.6,26.6,30.5z"/>
							</g>
							<g>
								<path class="st1" d="M23.2,28c0,0.1,0.1,0.1,0.1,0c0,0,0,0,0-0.1C23.4,28,23.3,27.9,23.2,28c0.1-0.1,0.2-0.1,0.2,0
									c0,0,0,0.1,0,0.1c0,0-0.1,0.1-0.1,0C23.2,28.1,23.2,28,23.2,28z"/>
								<path class="st1" d="M23.8,28.5c0-0.1,0-0.2,0-0.2c-0.1-0.1-0.1-0.1-0.1,0c0,0.1,0,0.1,0,0.2C23.6,28.5,23.7,28.6,23.8,28.5
									z M23.8,28.5c0,0.1-0.2,0.1-0.2,0c-0.1-0.1-0.1-0.2,0-0.3c0,0,0.1-0.1,0.1-0.1c0.1,0,0.1,0,0.1,0.1
									C23.8,28.3,23.8,28.4,23.8,28.5z"/>
								<path class="st1" d="M24.4,28.6c0.1,0,0.2-0.1,0.2-0.1c0-0.1,0-0.1-0.1-0.1l0,0C24.5,28.4,24.4,28.5,24.4,28.6z M24.4,28.6
									c-0.1-0.1,0-0.2,0-0.3c0,0,0,0,0,0c0.1,0,0.2,0.1,0.2,0.2C24.6,28.6,24.5,28.7,24.4,28.6z"/>
								<path class="st1" d="M24.2,29.8c0,0.1,0.1,0.2,0.2,0.2c0.1,0,0.2-0.1,0.2-0.2c0-0.1-0.1-0.2-0.2-0.2c-0.1,0-0.1,0-0.2,0
									C24.3,29.6,24.2,29.7,24.2,29.8z M24.2,29.8c0-0.1,0-0.1,0.1-0.2c0-0.1,0.1-0.1,0.2-0.1c0.1,0,0.1,0,0.2,0.1
									c0.1,0,0.1,0.1,0.1,0.2c0,0.2-0.1,0.3-0.3,0.3C24.3,30,24.2,29.9,24.2,29.8z"/>
								<path class="st1" d="M25.1,29.4c-0.1,0-0.1,0.1-0.1,0.2c0,0.1,0.1,0.1,0.1,0.2c0,0.2-0.1,0.3,0,0.5c0.1,0.1,0.2,0.2,0.3,0.2
									c0.1,0,0.3-0.1,0.3-0.3c0,0.2-0.1,0.3-0.3,0.3c-0.2,0-0.3-0.1-0.4-0.3c-0.1-0.2,0-0.3,0-0.5c0-0.1-0.1-0.1-0.1-0.2
									C24.9,29.5,25,29.5,25.1,29.4z"/>
							</g>
						</g>
					</g>
				</g>
			</g>
			<path class="st1" d="M20.5,11c0.7-0.7,1.6-1.2,2.6-1.5l0,0.1c-0.3,0.1-0.6,0.1-0.8,0.1c-0.3,0-0.6-0.1-0.8-0.3
				c-0.2-0.2-0.4-0.5-0.5-0.7c-0.1-0.3-0.1-0.6-0.2-0.8l0.2,0c0,0.2-0.2,0.4-0.3,0.5c-0.2,0.1-0.3,0.2-0.5,0.2c-0.2,0-0.4,0-0.6,0
				c-0.2-0.1-0.3-0.2-0.5-0.3c-0.3-0.3-0.4-0.6-0.6-0.9c-0.1-0.3-0.2-0.7-0.3-1l0.1,0c0,0.3-0.1,0.5-0.1,0.8
				c-0.1,0.3-0.2,0.5-0.3,0.7c-0.4,0.4-1.1,0.5-1.5,0.1c0,0,0,0,0,0c0,0,0,0,0,0c0.4,0.3,0.5,0.9,0.5,1.3c0.1-0.5-0.1-1-0.5-1.3l0,0
				c0.4,0.3,1.1,0.3,1.4-0.1c0.2-0.2,0.2-0.4,0.3-0.7c0.1-0.3,0.1-0.5,0.1-0.8c0,0,0-0.1,0.1-0.1c0,0,0.1,0,0.1,0
				c0.1,0.3,0.2,0.7,0.3,1C18.8,7.4,19,7.7,19.3,8c0.1,0.1,0.3,0.2,0.4,0.3c0.1,0.1,0.3,0,0.5,0c0.2,0,0.3-0.1,0.5-0.2
				c0.1-0.1,0.2-0.2,0.3-0.3l0,0c0,0,0-0.1,0.1-0.1c0,0,0.1,0,0.1,0.1c0,0.3,0.1,0.5,0.1,0.8c0.1,0.3,0.2,0.5,0.4,0.7
				c0.2,0.2,0.5,0.2,0.7,0.3c0.3,0,0.5,0,0.8-0.1c0,0,0.1,0,0.1,0c0,0,0,0.1,0,0.1C22.2,9.8,21.3,10.3,20.5,11z"/>
		</g>
	</g>
	<g>
		
			<linearGradient id="SVGID_00000177482988357400827620000011934759813959615916_" gradientUnits="userSpaceOnUse" x1="14.7608" y1="19.251" x2="26.7608" y2="-8.662">
			<stop  offset="0" style="stop-color:#FFD392"/>
			<stop  offset="9.367340e-02" style="stop-color:#FFD392"/>
			<stop  offset="0.1637" style="stop-color:#A4783C"/>
			<stop  offset="0.2774" style="stop-color:#FFD392"/>
			<stop  offset="0.3848" style="stop-color:#FFD392"/>
			<stop  offset="0.5135" style="stop-color:#BA8942"/>
			<stop  offset="0.6203" style="stop-color:#FFD392"/>
			<stop  offset="0.6831" style="stop-color:#FFD392"/>
			<stop  offset="0.774" style="stop-color:#AA772A"/>
			<stop  offset="0.8918" style="stop-color:#FFD392"/>
			<stop  offset="1" style="stop-color:#FFD392"/>
		</linearGradient>
		<path style="fill:url(#SVGID_00000177482988357400827620000011934759813959615916_);" d="M22.7,1.6c-0.3,0.1-0.4,0.1-0.6,0.2
			c-0.1-0.5-0.1-0.9-0.2-1.4c-0.1,0-0.1,0-0.2,0c-0.5,0.4-0.1,1.1-0.4,1.6c-0.2-0.1-0.3-0.2-0.5-0.4c0,0.4,0,0.6,0,0.9
			c-0.5,0-0.7,0.2-0.7,0.7c0.3,0.1,0.5,0.1,0.8,0.2c0,0.4-0.5,0.6-0.2,1.1c0.2-0.2,0.4-0.4,0.6-0.6c0,0.5,0.1,1,0.1,1.5
			c0,0.3,0.1,0.5,0.6,0.4c0-0.4,0-0.9,0-1.3c0.2,0,0.4-0.1,0.6-0.1c-0.2-0.4-0.3-0.7-0.5-1c0.3-0.3,1.1,0,1.1-0.8
			c-0.3-0.1-0.6-0.2-0.9-0.2C22.5,2.1,22.6,1.9,22.7,1.6z"/>
		
			<linearGradient id="SVGID_00000081612630160942227330000016338453443329850530_" gradientUnits="userSpaceOnUse" x1="2.4325" y1="13.951" x2="14.4325" y2="-13.9621">
			<stop  offset="0" style="stop-color:#FFD392"/>
			<stop  offset="9.367340e-02" style="stop-color:#FFD392"/>
			<stop  offset="0.1637" style="stop-color:#A4783C"/>
			<stop  offset="0.2774" style="stop-color:#FFD392"/>
			<stop  offset="0.3848" style="stop-color:#FFD392"/>
			<stop  offset="0.5135" style="stop-color:#BA8942"/>
			<stop  offset="0.6203" style="stop-color:#FFD392"/>
			<stop  offset="0.6831" style="stop-color:#FFD392"/>
			<stop  offset="0.774" style="stop-color:#AA772A"/>
			<stop  offset="0.8918" style="stop-color:#FFD392"/>
			<stop  offset="1" style="stop-color:#FFD392"/>
		</linearGradient>
		<path style="fill:url(#SVGID_00000081612630160942227330000016338453443329850530_);" d="M3.5,12.9c-0.3,0.2-0.5,0.3-0.8,0.5
			c-0.1-0.9-0.1-1.6-0.2-2.4c-0.1,0-0.2,0-0.3,0c-0.1,0.6-0.2,1.2-0.3,1.9c-0.2-0.2-0.4-0.3-0.5-0.4c-0.1,0-0.1,0-0.2,0
			c0,0.3,0.1,0.6,0.1,0.9c-1.2,0.2-1.2,0.2-1.3,0.8c0.6,0,1.2,0.1,1.9,0.1c-0.3,0.5-0.5,1-0.7,1.4c0.1,0,0.1,0.1,0.2,0.1
			c0.2-0.2,0.5-0.3,0.7-0.5c0.2,0.5-0.1,1.1,0.6,1.5c0-0.7,0.1-1.2,0.1-1.9c0.5,0.3,0.8,0.6,1.1,0.8c0,0,0.1-0.1,0.1-0.1
			c-0.3-0.4-0.6-0.8-0.9-1.3c0.5-0.2,1,0,1.3-0.6c-0.3-0.1-0.6-0.2-0.9-0.4C3.5,13.3,3.5,13.2,3.5,12.9z"/>
		
			<linearGradient id="SVGID_00000126319848547884474880000012942608068050169010_" gradientUnits="userSpaceOnUse" x1="24.108" y1="23.2694" x2="36.108" y2="-4.6436">
			<stop  offset="0" style="stop-color:#FFD392"/>
			<stop  offset="9.367340e-02" style="stop-color:#FFD392"/>
			<stop  offset="0.1637" style="stop-color:#A4783C"/>
			<stop  offset="0.2774" style="stop-color:#FFD392"/>
			<stop  offset="0.3848" style="stop-color:#FFD392"/>
			<stop  offset="0.5135" style="stop-color:#BA8942"/>
			<stop  offset="0.6203" style="stop-color:#FFD392"/>
			<stop  offset="0.6831" style="stop-color:#FFD392"/>
			<stop  offset="0.774" style="stop-color:#AA772A"/>
			<stop  offset="0.8918" style="stop-color:#FFD392"/>
			<stop  offset="1" style="stop-color:#FFD392"/>
		</linearGradient>
		<path style="fill:url(#SVGID_00000126319848547884474880000012942608068050169010_);" d="M28.3,12.9c-0.4,0-0.8,0.3-0.9,0.8
			c0,0.4,0.3,0.8,0.8,0.9c0.4,0,0.8-0.3,0.9-0.8C29.1,13.3,28.7,12.9,28.3,12.9z"/>
		
			<linearGradient id="SVGID_00000022528068584053210270000016676945260578196110_" gradientUnits="userSpaceOnUse" x1="9.5654" y1="17.0174" x2="21.5654" y2="-10.8956">
			<stop  offset="0" style="stop-color:#FFD392"/>
			<stop  offset="9.367340e-02" style="stop-color:#FFD392"/>
			<stop  offset="0.1637" style="stop-color:#A4783C"/>
			<stop  offset="0.2774" style="stop-color:#FFD392"/>
			<stop  offset="0.3848" style="stop-color:#FFD392"/>
			<stop  offset="0.5135" style="stop-color:#BA8942"/>
			<stop  offset="0.6203" style="stop-color:#FFD392"/>
			<stop  offset="0.6831" style="stop-color:#FFD392"/>
			<stop  offset="0.774" style="stop-color:#AA772A"/>
			<stop  offset="0.8918" style="stop-color:#FFD392"/>
			<stop  offset="1" style="stop-color:#FFD392"/>
		</linearGradient>
		<path style="fill:url(#SVGID_00000022528068584053210270000016676945260578196110_);" d="M15.4,2.8c-0.3,0-0.6,0.3-0.6,0.6
			c0,0.3,0.3,0.6,0.6,0.6C15.7,4,16,3.7,16,3.4C16,3.1,15.7,2.8,15.4,2.8z"/>
		
			<linearGradient id="SVGID_00000097472036696739704930000009723365376458032821_" gradientUnits="userSpaceOnUse" x1="7.5209" y1="16.1385" x2="19.5209" y2="-11.7745">
			<stop  offset="0" style="stop-color:#FFD392"/>
			<stop  offset="9.367340e-02" style="stop-color:#FFD392"/>
			<stop  offset="0.1637" style="stop-color:#A4783C"/>
			<stop  offset="0.2774" style="stop-color:#FFD392"/>
			<stop  offset="0.3848" style="stop-color:#FFD392"/>
			<stop  offset="0.5135" style="stop-color:#BA8942"/>
			<stop  offset="0.6203" style="stop-color:#FFD392"/>
			<stop  offset="0.6831" style="stop-color:#FFD392"/>
			<stop  offset="0.774" style="stop-color:#AA772A"/>
			<stop  offset="0.8918" style="stop-color:#FFD392"/>
			<stop  offset="1" style="stop-color:#FFD392"/>
		</linearGradient>
		<path style="fill:url(#SVGID_00000097472036696739704930000009723365376458032821_);" d="M10.4,8.8c-0.3,0-0.6,0.3-0.6,0.6
			c0,0.3,0.3,0.6,0.6,0.6c0.3,0,0.6-0.3,0.6-0.6C11,9,10.8,8.8,10.4,8.8z"/>
		
			<linearGradient id="SVGID_00000106146242886860297380000002857319912357528236_" gradientUnits="userSpaceOnUse" x1="6.845" y1="15.8479" x2="18.845" y2="-12.0651">
			<stop  offset="0" style="stop-color:#FFD392"/>
			<stop  offset="9.367340e-02" style="stop-color:#FFD392"/>
			<stop  offset="0.1637" style="stop-color:#A4783C"/>
			<stop  offset="0.2774" style="stop-color:#FFD392"/>
			<stop  offset="0.3848" style="stop-color:#FFD392"/>
			<stop  offset="0.5135" style="stop-color:#BA8942"/>
			<stop  offset="0.6203" style="stop-color:#FFD392"/>
			<stop  offset="0.6831" style="stop-color:#FFD392"/>
			<stop  offset="0.774" style="stop-color:#AA772A"/>
			<stop  offset="0.8918" style="stop-color:#FFD392"/>
			<stop  offset="1" style="stop-color:#FFD392"/>
		</linearGradient>
		<path style="fill:url(#SVGID_00000106146242886860297380000002857319912357528236_);" d="M4.6,21.8c-0.3-0.2-0.8-0.2-1.1,0
			c0-0.1-0.1-0.1-0.2,0c-0.8,0.8,0.4,2.3,1.4,1.6C5.1,22.9,5,22.1,4.6,21.8z M4.2,22.9c-0.2,0.2-0.5-0.1-0.6-0.2
			c-0.1-0.1-0.2-0.3-0.2-0.4c0,0,0,0,0,0C3.7,22,4,22,4.2,22.1C4.5,22.3,4.4,22.7,4.2,22.9z"/>
		
			<linearGradient id="SVGID_00000050623235695919193970000008436925336575908279_" gradientUnits="userSpaceOnUse" x1="23.3417" y1="22.94" x2="35.3417" y2="-4.9731">
			<stop  offset="0" style="stop-color:#FFD392"/>
			<stop  offset="9.367340e-02" style="stop-color:#FFD392"/>
			<stop  offset="0.1637" style="stop-color:#A4783C"/>
			<stop  offset="0.2774" style="stop-color:#FFD392"/>
			<stop  offset="0.3848" style="stop-color:#FFD392"/>
			<stop  offset="0.5135" style="stop-color:#BA8942"/>
			<stop  offset="0.6203" style="stop-color:#FFD392"/>
			<stop  offset="0.6831" style="stop-color:#FFD392"/>
			<stop  offset="0.774" style="stop-color:#AA772A"/>
			<stop  offset="0.8918" style="stop-color:#FFD392"/>
			<stop  offset="1" style="stop-color:#FFD392"/>
		</linearGradient>
		<path style="fill:url(#SVGID_00000050623235695919193970000008436925336575908279_);" d="M31.7,3.8c-0.4-0.1-0.8,0.1-1.1,0.3
			c-0.1,0-0.1,0.1-0.1,0.2c-0.1,0-0.2,0-0.3,0.1c-0.2,0.2-0.2,0.6-0.2,0.8c0.1,0.6,0.6,0.9,1.1,0.7c0.6-0.2,0.9-0.8,0.9-1.3
			C32.2,4.2,32.1,3.9,31.7,3.8z M31.7,4.6c0,0.3-0.3,0.6-0.5,0.7c-0.2,0.1-0.4,0.1-0.5-0.2c0-0.2,0-0.3,0-0.5c0,0,0,0,0,0
			c0.1,0,0.2-0.1,0.3-0.1c0.1,0,0.1-0.2,0-0.2c-0.1,0-0.1,0-0.2,0c0.2-0.1,0.4-0.2,0.6-0.2C31.8,4.1,31.7,4.4,31.7,4.6z"/>
		
			<linearGradient id="SVGID_00000056396170092130919520000005341526274832766362_" gradientUnits="userSpaceOnUse" x1="3.8846" y1="14.5752" x2="15.8846" y2="-13.3378">
			<stop  offset="0" style="stop-color:#FFD392"/>
			<stop  offset="9.367340e-02" style="stop-color:#FFD392"/>
			<stop  offset="0.1637" style="stop-color:#A4783C"/>
			<stop  offset="0.2774" style="stop-color:#FFD392"/>
			<stop  offset="0.3848" style="stop-color:#FFD392"/>
			<stop  offset="0.5135" style="stop-color:#BA8942"/>
			<stop  offset="0.6203" style="stop-color:#FFD392"/>
			<stop  offset="0.6831" style="stop-color:#FFD392"/>
			<stop  offset="0.774" style="stop-color:#AA772A"/>
			<stop  offset="0.8918" style="stop-color:#FFD392"/>
			<stop  offset="1" style="stop-color:#FFD392"/>
		</linearGradient>
		<path style="fill:url(#SVGID_00000056396170092130919520000005341526274832766362_);" d="M12.3,0.6c-0.1,0-0.2,0-0.3,0.1
			c0,0,0,0-0.1,0c0,0-0.1,0-0.1,0c-0.1,0-0.2-0.1-0.3-0.2c-0.2-0.2-0.4-0.4-0.7-0.5C10.4-0.1,10,0,9.8,0.3c0,0,0,0,0,0
			C9.4,0.7,9.3,1.2,9.1,1.7C9,2.2,8.8,2.7,8.6,3.2c-0.2,0.5-0.4,1-0.5,1.4C8,4.7,8,4.7,8,4.8C7.9,4.6,7.7,4.5,7.5,4.4
			c-0.4-0.1-0.8-0.2-1.2,0C6.2,4.4,6,4.5,5.9,4.6C5.7,4.7,5.4,4.9,5.3,5C5.1,5.3,4.9,5.7,5,6C5,6.3,5.2,6.5,5.5,6.6
			c0.3,0.1,0.7,0.1,1,0.1c0.3,0,0.6-0.1,0.8-0.2C7.6,6.4,7.8,6.2,7.9,6c0.2-0.2,0.3-0.5,0.3-0.7c0.1-0.2,0.1-0.4,0.2-0.6
			c0.2-0.5,0.4-1,0.5-1.5c0.2-0.4,0.3-0.8,0.5-1.3c0.1,0,0.2,0,0.3,0C10,2,10.2,2.2,10.3,2.3c0.4,0.3,1,0.5,1.4,0.2
			c0.2-0.2,0.3-0.6,0.4-0.8c0.1-0.3,0.2-0.6,0.3-0.8C12.5,0.7,12.4,0.6,12.3,0.6z"/>
		
			<linearGradient id="SVGID_00000090996312119387464580000012479138972041717422_" gradientUnits="userSpaceOnUse" x1="20.0827" y1="21.5389" x2="32.0827" y2="-6.3741">
			<stop  offset="0" style="stop-color:#FFD392"/>
			<stop  offset="9.367340e-02" style="stop-color:#FFD392"/>
			<stop  offset="0.1637" style="stop-color:#A4783C"/>
			<stop  offset="0.2774" style="stop-color:#FFD392"/>
			<stop  offset="0.3848" style="stop-color:#FFD392"/>
			<stop  offset="0.5135" style="stop-color:#BA8942"/>
			<stop  offset="0.6203" style="stop-color:#FFD392"/>
			<stop  offset="0.6831" style="stop-color:#FFD392"/>
			<stop  offset="0.774" style="stop-color:#AA772A"/>
			<stop  offset="0.8918" style="stop-color:#FFD392"/>
			<stop  offset="1" style="stop-color:#FFD392"/>
		</linearGradient>
		<path style="fill:url(#SVGID_00000090996312119387464580000012479138972041717422_);" d="M26.4,5.8c0,0-0.1,0.1-0.1,0.1
			c0,0,0,0,0,0c0,0,0,0,0,0c0,0-0.1,0-0.1,0c-0.1,0-0.2,0-0.3,0c-0.1,0.1-0.2,0.2-0.2,0.3c0,0,0,0,0,0c0,0.2,0.1,0.4,0.2,0.6
			c0.1,0.2,0.2,0.4,0.3,0.6c0.1,0.2,0.2,0.4,0.2,0.6c0,0,0,0,0,0.1c-0.1,0-0.2,0-0.3,0c-0.2,0.1-0.3,0.2-0.4,0.3c0,0,0,0.1-0.1,0.2
			c0,0.1-0.1,0.2-0.1,0.3c0,0.1,0.1,0.3,0.2,0.4c0.1,0.1,0.2,0.1,0.3,0c0.1,0,0.2-0.2,0.3-0.2c0.1-0.1,0.1-0.2,0.2-0.3
			c0-0.1,0-0.2,0-0.3c0-0.1,0-0.2-0.1-0.3c0-0.1-0.1-0.2-0.1-0.2c-0.1-0.2-0.2-0.4-0.2-0.6C26.1,7.3,26,7.1,25.9,7
			c0,0,0.1-0.1,0.1-0.1c0.1,0,0.2,0,0.3,0c0.2,0,0.4-0.1,0.5-0.3c0-0.1-0.1-0.3-0.1-0.4C26.6,6,26.5,5.9,26.4,5.8
			C26.5,5.8,26.4,5.8,26.4,5.8z"/>
		
			<linearGradient id="SVGID_00000012441094687183553180000000254500529769918381_" gradientUnits="userSpaceOnUse" x1="31.2415" y1="26.3361" x2="43.2415" y2="-1.5769">
			<stop  offset="0" style="stop-color:#FFD392"/>
			<stop  offset="9.367340e-02" style="stop-color:#FFD392"/>
			<stop  offset="0.1637" style="stop-color:#A4783C"/>
			<stop  offset="0.2774" style="stop-color:#FFD392"/>
			<stop  offset="0.3848" style="stop-color:#FFD392"/>
			<stop  offset="0.5135" style="stop-color:#BA8942"/>
			<stop  offset="0.6203" style="stop-color:#FFD392"/>
			<stop  offset="0.6831" style="stop-color:#FFD392"/>
			<stop  offset="0.774" style="stop-color:#AA772A"/>
			<stop  offset="0.8918" style="stop-color:#FFD392"/>
			<stop  offset="1" style="stop-color:#FFD392"/>
		</linearGradient>
		<path style="fill:url(#SVGID_00000012441094687183553180000000254500529769918381_);" d="M38.6,17.7c-0.1-0.2-0.1-0.5-0.2-0.7
			c-0.1-0.5-0.3-1-0.4-1.5c-0.1-0.5-0.3-1-0.4-1.6c-0.1-0.3-0.1-0.5-0.2-0.8c0-0.2-0.1-0.3-0.2-0.4c0-0.1,0-0.1,0-0.2
			c0,0,0-0.1,0-0.1c-0.1-0.2-0.6,0-0.7,0c-0.7,0.2-1.4,0.4-2,0.6c-0.4,0.1-0.8,0.2-1.1,0.3c-0.3,0.1-0.7,0.2-0.9,0.4c0,0,0,0,0,0
			c0,0-0.1,0-0.1,0.1c0,0,0,0,0,0.1c0,0,0,0.1,0,0.1c0,0,0,0,0,0c0,0.4,0.2,0.9,0.3,1.3c0.1,0.5,0.3,1,0.4,1.6
			c0.1,0.5,0.2,1,0.4,1.5c0,0.1,0,0.1,0,0.2c-0.5-0.1-1,0.1-1.4,0.3c-0.2,0.2-0.4,0.4-0.5,0.6c-0.2,0.3-0.4,0.6-0.4,1
			c0,0.3,0.1,0.7,0.3,0.9c0.2,0.2,0.6,0.2,0.9,0.1c0.3-0.1,0.7-0.3,0.9-0.5c0.2-0.2,0.4-0.4,0.6-0.7c0.1-0.2,0.2-0.5,0.2-0.7
			c0-0.3,0-0.6-0.2-0.8c-0.1-0.2-0.1-0.4-0.2-0.7c-0.1-0.5-0.3-1-0.4-1.5c-0.1-0.5-0.2-1-0.4-1.4c0.2,0,0.4-0.1,0.5-0.1
			c0.3-0.1,0.7-0.2,1-0.2c0.7-0.2,1.4-0.3,2-0.5c0.2-0.1,0.5-0.1,0.8-0.2c0.1,0.5,0.2,1,0.4,1.5c0.1,0.5,0.2,1,0.4,1.5
			c0,0.1,0,0.1,0.1,0.2c-0.5-0.1-1,0.1-1.4,0.3c-0.2,0.2-0.4,0.4-0.5,0.6c-0.2,0.3-0.4,0.6-0.4,1c0,0.3,0.1,0.7,0.3,0.9
			c0.2,0.2,0.6,0.2,0.9,0.1c0.3-0.1,0.7-0.3,0.9-0.5c0.2-0.2,0.4-0.4,0.6-0.7c0.1-0.2,0.2-0.5,0.2-0.7
			C38.8,18.1,38.7,17.9,38.6,17.7z"/>
		
			<linearGradient id="SVGID_00000015349217286711421050000002385398414675928478_" gradientUnits="userSpaceOnUse" x1="6.4208" y1="15.6656" x2="18.4208" y2="-12.2475">
			<stop  offset="0" style="stop-color:#FFD392"/>
			<stop  offset="9.367340e-02" style="stop-color:#FFD392"/>
			<stop  offset="0.1637" style="stop-color:#A4783C"/>
			<stop  offset="0.2774" style="stop-color:#FFD392"/>
			<stop  offset="0.3848" style="stop-color:#FFD392"/>
			<stop  offset="0.5135" style="stop-color:#BA8942"/>
			<stop  offset="0.6203" style="stop-color:#FFD392"/>
			<stop  offset="0.6831" style="stop-color:#FFD392"/>
			<stop  offset="0.774" style="stop-color:#AA772A"/>
			<stop  offset="0.8918" style="stop-color:#FFD392"/>
			<stop  offset="1" style="stop-color:#FFD392"/>
		</linearGradient>
		<path style="fill:url(#SVGID_00000015349217286711421050000002385398414675928478_);" d="M8.1,13.5c0,0,0.1-0.1,0.1-0.1
			c0.1-0.1,0.2-0.2,0.3-0.3c0.1-0.1,0.2-0.2,0.3-0.3c0,0,0.1-0.1,0.1-0.1c0,0,0.1-0.1,0.1-0.1c0,0,0,0,0,0c0,0,0,0,0,0
			c0,0-0.1-0.1-0.1-0.1c-0.1-0.1-0.2-0.2-0.4-0.3C8.5,12,8.4,12,8.4,11.9c-0.1-0.1-0.1-0.1-0.2-0.1c0,0,0,0,0,0c0,0,0,0,0,0
			c0,0,0,0,0,0c0,0,0,0,0,0c0,0,0,0,0,0C8,11.8,7.9,11.9,7.9,12c-0.1,0.1-0.2,0.2-0.3,0.3c-0.1,0.1-0.2,0.2-0.3,0.3c0,0,0,0,0,0
			c0-0.1-0.1-0.2-0.2-0.2c-0.1,0-0.1,0-0.2,0c-0.1,0-0.2,0-0.2,0c-0.1,0-0.1,0.1-0.1,0.2c0,0.1,0,0.1,0.1,0.2
			c0.1,0.1,0.1,0.1,0.2,0.1c0.1,0,0.1,0,0.2,0c0.1,0,0.1,0,0.2-0.1c0.1,0,0.1-0.1,0.1-0.1c0,0,0.1-0.1,0.1-0.1
			c0.1-0.1,0.2-0.2,0.3-0.3c0.1-0.1,0.2-0.2,0.3-0.2c0,0,0.1,0.1,0.1,0.1c0.1,0.1,0.1,0.1,0.2,0.2c0.1,0.1,0.2,0.2,0.3,0.4
			c0,0,0.1,0.1,0.1,0.1c-0.1,0.1-0.2,0.2-0.3,0.3c-0.1,0.1-0.2,0.2-0.3,0.3c0,0,0,0,0,0c0-0.1-0.1-0.2-0.2-0.2c-0.1,0-0.1,0-0.2,0
			c-0.1,0-0.2,0-0.2,0c-0.1,0-0.1,0.1-0.1,0.2c0,0.1,0,0.1,0.1,0.2c0.1,0.1,0.1,0.1,0.2,0.1c0.1,0,0.1,0,0.2,0c0.1,0,0.1,0,0.2-0.1
			C8,13.6,8.1,13.6,8.1,13.5z"/>
	</g>
</g>
</svg>
