<?xml version="1.0" encoding="utf-8"?>
<!-- Generator: Adobe Illustrator 27.6.1, SVG Export Plug-In . SVG Version: 6.00 Build 0)  -->
<svg version="1.1" id="Layer_1" xmlns="http://www.w3.org/2000/svg" xmlns:xlink="http://www.w3.org/1999/xlink" x="0px" y="0px"
	 viewBox="0 0 82.5 107" style="enable-background:new 0 0 82.5 107;" xml:space="preserve">
<style type="text/css">
	.st0{display:none;fill:url(#SVGID_1_);}
	.st1{fill:url(#SVGID_00000110454568971066185540000011198551890130586300_);}
	.st2{fill:#333333;}
</style>
<g>
	<linearGradient id="SVGID_1_" gradientUnits="userSpaceOnUse" x1="-11.677" y1="80.2334" x2="212.3311" y2="-22.7067">
		<stop  offset="0" style="stop-color:#FFD191"/>
		<stop  offset="9.367340e-02" style="stop-color:#FFD191"/>
		<stop  offset="0.1637" style="stop-color:#A3783B"/>
		<stop  offset="0.2774" style="stop-color:#FFD191"/>
		<stop  offset="0.3848" style="stop-color:#FFD191"/>
		<stop  offset="0.5135" style="stop-color:#B98841"/>
		<stop  offset="0.6203" style="stop-color:#FFD191"/>
		<stop  offset="0.6831" style="stop-color:#FFD191"/>
		<stop  offset="0.774" style="stop-color:#A9762A"/>
		<stop  offset="0.8918" style="stop-color:#FFD191"/>
		<stop  offset="1" style="stop-color:#FFD191"/>
	</linearGradient>
	<path class="st0" d="M2.6,42.8c-1.3,4-1.8,8.2-1.8,12.4c0.1,4.2,0.8,8.4,2.1,12.4l1.1,2.9c0.4,1,0.9,1.9,1.3,2.9
		c0.4,1,1,1.8,1.6,2.7l0.8,1.3C8,78,8.3,78.4,8.6,78.8l1,1.3c0.3,0.4,0.6,0.8,1,1.2l2.1,2.3c0.8,0.7,1.6,1.4,2.3,2.1l0.6,0.5
		l0.1,0.1l0.4,0.3l-0.3,1.1l-0.2-0.2l-0.1-0.1l-0.5-0.4l-0.6-0.6c-0.8-0.7-1.6-1.4-2.4-2.2L9.7,82c-0.4-0.4-0.7-0.8-1-1.3l-1-1.3
		C5.3,75.9,3.2,72.1,2,68C0.7,63.8,0,59.6,0,55.2c0-4.3,0.7-8.6,2-12.6c2.7-8.1,8-15.3,14.9-20.3C10.1,27.5,5,34.7,2.6,42.8z
		 M63.5,88.8c-3.1,2-6.6,3.7-10.2,4.8c-4,1.2-8.2,1.8-12.4,1.8c-4.2,0-8.3-0.8-12.3-2l-3-1.1L22.8,91l-0.7-0.3l-0.7-0.4l-1.3-0.8
		l-1.3-0.8l-0.4-0.3L17.9,88l-0.1,0.6l-0.1,0.6l0.3,0.3l0.1,0.1l2.7,1.7l0.7,0.4l0.7,0.4l2.9,1.4l3,1.1c4.1,1.3,8.4,2.1,12.7,2.1
		c4.3,0,8.6-0.7,12.7-1.9c3.6-1.1,7-2.8,10.1-4.8c0.2-0.1,0.3-0.2,0.4-0.3l-0.2-1.2C63.8,88.6,63.6,88.7,63.5,88.8z M80.7,43.3
		c-2.6-8.2-7.7-15.5-14.5-20.6c6.7,5.3,11.6,12.6,13.9,20.7c2.4,8.1,2.1,16.9-0.7,24.9c-1.3,4-3.4,7.7-5.9,11
		c-2.1,2.8-4.6,5.4-7.4,7.5c-0.2,0.1-0.3,0.3-0.5,0.3l0.3,1.2c0.2-0.1,0.3-0.2,0.4-0.3c3-2.3,5.7-5.1,8-8.1c0.6-0.8,1.3-1.7,1.8-2.6
		c0.5-0.9,1.1-1.8,1.6-2.8l1.4-2.9c0.4-1,0.7-2,1.1-3C83.1,60.5,83.2,51.5,80.7,43.3z"/>
	
		<linearGradient id="SVGID_00000018225951081401421000000005188471956801057709_" gradientUnits="userSpaceOnUse" x1="0" y1="58.3728" x2="82.4567" y2="58.3728">
		<stop  offset="0" style="stop-color:#FFD191"/>
		<stop  offset="9.367340e-02" style="stop-color:#FFD191"/>
		<stop  offset="0.1637" style="stop-color:#A3783B"/>
		<stop  offset="0.2774" style="stop-color:#FFD191"/>
		<stop  offset="0.3848" style="stop-color:#FFD191"/>
		<stop  offset="0.5135" style="stop-color:#B98841"/>
		<stop  offset="0.6203" style="stop-color:#FFD191"/>
		<stop  offset="0.6831" style="stop-color:#FFD191"/>
		<stop  offset="0.774" style="stop-color:#A9762A"/>
		<stop  offset="0.8918" style="stop-color:#FFD191"/>
		<stop  offset="1" style="stop-color:#FFD191"/>
	</linearGradient>
	<path style="fill:url(#SVGID_00000018225951081401421000000005188471956801057709_);" d="M16.2,84.8l-0.7,2.9
		C6.1,80.1,0,68.4,0,55.4c0-14.9,8-28,19.9-35.3C8.7,27.2,1.4,39.6,1.4,53.8C1.4,66.3,7.2,77.5,16.2,84.8z M41.2,93.6
		c-8.5,0-16.4-2.7-22.8-7.2l-0.6,2.9c6.7,4.6,14.7,7.3,23.4,7.3c8.4,0,16.2-2.5,22.7-6.8l-0.6-2.9C57,91.2,49.4,93.6,41.2,93.6z
		 M63.5,20.7c10.6,7.2,17.5,19.3,17.5,33c0,12.9-6.1,24.3-15.6,31.6l0.7,2.9c9.9-7.5,16.3-19.4,16.3-32.8
		C82.5,40.9,74.9,28,63.5,20.7z"/>
	<g>
		<g>
			<g>
				<g>
					<g>
						<g>
							<g>
								<g>
									<g>
										<path class="st2" d="M24.5,60.8c-1.4,6.2-2.8,12.4-4.2,18.6l-2.1,8.9l-0.1,0.4L18,89.4L17,93.2c-0.2,0.8-0.4,1.5-0.4,2.3
											c0,0.6,0.1,1.2,0.4,1.7c-0.4-0.4-0.5-1.1-0.5-1.7c0-0.8,0.2-1.6,0.4-2.4l0.8-4l0.1-0.6l0.1-0.6l1.8-8.8
											C21,73.1,22.4,67,23.7,61l-1.2-0.3c-1.5,6-3,12.2-4.5,18.2l-2,7.7l-0.3,1.1l-0.1,0.5l-1.2,4.6c-0.1,0.4-0.2,0.8-0.3,1.2
											c-0.2,0.4-0.4,0.7-0.7,1c-0.6,0.6-1.3,1-2,1.2c1.5-0.5,2.7-1.8,2.9-3.5l1.1-4.7l0.2-0.7l0.3-1.2l1.7-7.5
											c1.5-6.2,3-12.4,4.5-18.6c0-0.2,0.3-0.3,0.5-0.3l1.9,0.4C24.5,60.3,24.6,60.6,24.5,60.8z"/>
									</g>
								</g>
								<g>
									<path class="st2" d="M16.5,95.5c1.9,0.4,3.8,0.9,5.6,1.6c0.9,0.4,1.8,0.7,2.7,1.2c0.4,0.3,0.8,0.5,1.2,0.9
										c0.2,0.2,0.3,0.5,0.3,0.8c-0.1,0.4-0.4,0.5-0.6,0.6c-1,0.4-2,0.3-2.9,0.3c-1,0-1.9-0.1-2.9-0.2c-1.9-0.2-3.8-0.5-5.7-0.9
										c-1.9-0.4-3.8-0.9-5.6-1.5c-0.9-0.3-1.8-0.7-2.7-1.1c-0.9-0.4-1.8-0.8-2.5-1.6c-0.2-0.2-0.4-0.4-0.4-0.8
										c0-0.2,0.1-0.4,0.2-0.5c0.1-0.1,0.2-0.2,0.4-0.3c0.5-0.2,1-0.3,1.5-0.4c1-0.1,2,0,2.9,0c1.9,0.2,3.8,0.5,5.7,1c0,0,0,0,0,0
										c0,0,0,0,0,0c-1.9-0.3-3.8-0.5-5.7-0.6c-1,0-1.9-0.1-2.9,0.1c-0.9,0.1-2.1,0.4-1.3,1.1c0.6,0.6,1.5,1.1,2.4,1.5
										c0.9,0.4,1.8,0.8,2.7,1.1c1.8,0.6,3.7,1.2,5.5,1.7c1.9,0.5,3.8,0.8,5.7,1c1,0.1,1.9,0.2,2.9,0.1c0.9,0,1.9-0.1,2.8-0.4
										c0.2-0.1,0.3-0.2,0.4-0.3c0-0.1-0.1-0.3-0.2-0.5c-0.3-0.3-0.7-0.6-1.1-0.8c-0.8-0.5-1.7-0.9-2.6-1.3
										C20.2,96.7,18.4,96.1,16.5,95.5C16.5,95.5,16.5,95.5,16.5,95.5C16.5,95.5,16.5,95.5,16.5,95.5z"/>
									<path class="st2" d="M3.2,94.1c-0.4,0.4-0.6,1-0.4,1.5c0.1,0.5,0.6,0.9,1.1,1.1c0.9,0.6,1.9,1,2.9,1.4
										c2,0.7,4.1,1.3,6.2,1.8c2.1,0.5,4.2,0.9,6.4,1.2c2.1,0.3,4.3,0.5,6.5,0.4l0,0c0.2-0.2,0.4-0.5,0.4-0.8c0.1-0.3,0-0.6,0-0.9
										c0,0.3,0.1,0.6,0,0.9c0,0.3-0.1,0.6-0.4,0.8l0,0l0,0c-2.2,0.3-4.4,0.1-6.5-0.1c-2.2-0.3-4.3-0.7-6.4-1.2
										c-2.1-0.5-4.2-1.1-6.2-1.9c-1-0.4-2-0.9-2.9-1.5c-0.4-0.3-0.9-0.7-1-1.2C2.6,95,2.8,94.4,3.2,94.1z"/>
								</g>
							</g>
							<g>
								<g>
									<path class="st2" d="M42.3,12.6c-1.5,9-3.2,18.2-5,27.4c-0.5,2.3-0.9,4.6-1.5,6.8c-0.5,2.3-1.2,4.5-2,6.7
										c-0.9,2.1-1.9,4.4-3.8,5.9c-1.9,1.5-4.5,1.9-6.8,1.3c-0.6-0.1-1.1-0.3-1.7-0.5c-0.6-0.2-1.1-0.5-1.6-0.8
										c-0.5-0.3-0.9-0.8-1.3-1.2c-0.4-0.5-0.7-1-1-1.5c-1-2.2-1.1-4.7-0.9-7c0.4-4.7,1.8-9.2,2.9-13.7c2.3-9,4.8-17.9,7.3-26.9
										l0,0c0.1-0.2,0.2-0.3,0.4-0.3c0.7-0.1,1.4,0,2,0.1l1.9,0.4l3.8,0.8c1.3,0.3,2.5,0.5,3.8,0.9C40,11.3,41.2,11.8,42.3,12.6z
										 M42.1,12.6c-1-0.6-2.3-1.1-3.5-1.3c-1.2-0.3-2.5-0.4-3.8-0.6L31,10l-1.9-0.3c-0.6-0.1-1.2-0.1-1.8,0l0.4-0.3
										c-2.2,9-4.6,18-7,26.9L18.9,43c-0.6,2.2-1.1,4.5-1.4,6.7c-0.3,2.3-0.3,4.6,0.6,6.7c0.4,1,1.1,1.9,2,2.6
										c0.9,0.7,2,1,3.1,1.3c2.2,0.5,4.7,0.3,6.4-1.2c1.7-1.5,2.8-3.6,3.5-5.8c1.5-4.3,2.1-9,3-13.5C38,30.8,39.9,21.9,42.1,12.6z
										"/>
								</g>
								<path class="st2" d="M28.2,9.3c-0.2,0.2-0.4,0.4-0.6,0.5l0,0c-0.1,0.2,0.2,0.4,0.5,0.5l0.9,0.3c0.6,0.2,1.2,0.3,1.8,0.5
									c1.2,0.3,2.4,0.6,3.7,0.9l3.7,0.9c1.2,0.3,2.5,0.4,3.7,0.2c-1.2,0.5-2.5,0.5-3.8,0.3c-1.3-0.2-2.5-0.5-3.7-0.7
									c-1.2-0.3-2.5-0.6-3.7-1c-0.6-0.2-1.2-0.4-1.8-0.7c-0.3-0.1-0.6-0.2-0.9-0.4c-0.2-0.1-0.3-0.2-0.4-0.3
									c-0.1-0.1-0.2-0.4-0.1-0.5l0,0l0,0C27.7,9.5,27.9,9.4,28.2,9.3z"/>
							</g>
						</g>
						<g>
							<path class="st2" d="M25.3,36.1c-1.2,0.3-2.3,0.6-3.3,1.2c-0.5,0.3-1,0.7-1.3,1.1c-0.3,0.4-0.7,1-0.6,1.4
								c0,0.5,0.6,0.6,1.1,0.7c0.6,0.1,1.2,0.2,1.7,0.2c1.2,0.1,2.4,0,3.5-0.3c2.3-0.5,4.5-1.5,6.6-2.8c1-0.6,2-1.3,2.8-2.1
								c0.8-0.8,1.5-1.8,1.7-2.9l0.5,0.3c-0.9,0.6-1.8,1.2-2.9,1.7c-0.5,0.2-1,0.4-1.6,0.6c-0.6,0.1-1.1,0.2-1.7,0.2
								c-1.1,0-2.2-0.1-3.3,0C27.4,35.6,26.4,35.8,25.3,36.1z M25.3,36c1.1-0.3,2.1-0.5,3.2-0.7c1.1-0.2,2.2-0.2,3.3-0.3
								c1.1-0.1,2.1-0.4,3-0.8c1-0.5,1.9-1.1,2.8-1.7l0,0c0.1-0.1,0.3-0.1,0.4,0.1c0,0.1,0.1,0.2,0,0.2c-0.3,1.3-1,2.3-1.9,3.2
								c-0.9,0.8-1.9,1.5-3,2.1c-2.1,1.1-4.3,2.1-6.7,2.7c-1.2,0.3-2.4,0.5-3.6,0.5c-0.6,0-1.2-0.1-1.8-0.2c-0.3,0-0.6-0.1-0.9-0.3
								c-0.3-0.2-0.6-0.5-0.6-0.9c0-0.8,0.4-1.3,0.8-1.7c0.4-0.5,0.9-0.8,1.5-1.1C22.9,36.6,24.1,36.3,25.3,36z"/>
							<path class="st2" d="M25.9,35.6c0.5-0.5,1.1-0.7,1.8-0.8c0.7-0.1,1.3-0.2,1.9-0.4c0.6-0.2,1.2-0.5,1.7-0.8
								c0.3-0.2,0.5-0.4,0.8-0.6c0.3-0.2,0.7-0.3,1.1-0.1l0,0c0,0,0.1,0.1,0.1,0.1c0,0.7-0.5,1.2-1.1,1.3c0.6-0.2,0.9-0.8,0.9-1.3
								l0.1,0.1c-0.2-0.1-0.5,0-0.8,0.2c-0.3,0.2-0.5,0.4-0.8,0.6c-0.5,0.4-1.2,0.7-1.8,0.9c-0.7,0.2-1.3,0.2-2,0.3
								C27.1,35.1,26.5,35.3,25.9,35.6z"/>
						</g>
					</g>
					<g>
						<g>
							<g>
								<path class="st2" d="M21.9,60.9c0.2,0,0.4,0,0.6,0c0.2,0.1,0.4,0.1,0.6,0.2c-0.2,0-0.4,0-0.6,0C22.3,61.1,22.1,61,21.9,60.9
									z"/>
								<path class="st2" d="M21.9,61.9c0.2,0,0.4,0,0.6,0c0.2,0,0.4,0.1,0.6,0.2c-0.2,0.1-0.4,0.1-0.6,0
									C22.3,62.1,22.1,62,21.9,61.9z"/>
								<path class="st2" d="M21.6,63c0.2,0,0.4,0,0.6,0c0.2,0,0.4,0,0.6,0.1c-0.2,0.1-0.4,0.1-0.6,0.1C22,63.2,21.8,63.1,21.6,63z"
									/>
								<path class="st2" d="M21.3,63.8c0.2,0,0.4,0,0.6,0c0.2,0.1,0.4,0.1,0.5,0.2c-0.2,0-0.4,0-0.6,0C21.6,64,21.5,64,21.3,63.8z"
									/>
								<path class="st2" d="M21,64.8c0.2,0,0.3,0,0.4,0c0.1,0,0.3,0,0.4,0.1C21.7,65,21.5,65,21.4,65C21.2,64.9,21.1,64.9,21,64.8z
									"/>
								<path class="st2" d="M20.8,65.8c0.2,0,0.4,0,0.7,0c0.2,0.1,0.4,0.1,0.6,0.2c-0.2,0-0.4,0-0.7,0C21.2,66,21,66,20.8,65.8z"/>
								<path class="st2" d="M20.6,67.2c0.2,0,0.3,0,0.5,0c0.1,0,0.3,0.1,0.4,0.2c-0.2,0-0.3,0-0.5,0C20.9,67.3,20.7,67.3,20.6,67.2
									z"/>
								<path class="st2" d="M20.6,68.3c0.3,0.1,0.6,0.1,0.9,0.2C21.2,68.7,20.7,68.6,20.6,68.3z"/>
								<path class="st2" d="M20.3,69.6c0.2-0.1,0.4,0,0.6,0c0.2,0,0.4,0.1,0.6,0.2c-0.2,0.1-0.4,0-0.6,0
									C20.6,69.7,20.4,69.7,20.3,69.6z"/>
								<path class="st2" d="M20.3,70.6c0.2,0,0.4,0,0.5,0.1c0.2,0.1,0.3,0.1,0.5,0.3c-0.2,0-0.4,0-0.5-0.1
									C20.6,70.8,20.4,70.7,20.3,70.6z"/>
								<path class="st2" d="M20.1,71.8c0.4,0.1,0.6,0.2,0.9,0.4C20.6,72.2,20.3,72.1,20.1,71.8z"/>
								<path class="st2" d="M19.5,73.3c0.4,0.1,0.6,0.2,1,0.3C20.1,73.8,19.6,73.6,19.5,73.3z"/>
								<path class="st2" d="M16.4,84.6c0.3-0.1,0.6,0,0.7,0.3C16.9,84.8,16.7,84.8,16.4,84.6z"/>
								<path class="st2" d="M16.1,86.2c0.2-0.1,0.3,0,0.5,0c0.2,0,0.3,0.1,0.5,0.2c-0.2,0.1-0.3,0-0.5,0
									C16.4,86.3,16.2,86.3,16.1,86.2z"/>
								<path class="st2" d="M16.9,82.6c0.3,0,0.5,0.1,0.7,0.1C17.4,83,17,82.9,16.9,82.6z"/>
								<path class="st2" d="M16.2,87.7c-0.2,1.3-0.5,2.6-0.8,3.9c-0.4,1.3-0.8,2.6-1.4,3.8c0.4-1.3,0.8-2.5,1.2-3.8
									C15.5,90.3,15.8,89,16.2,87.7z"/>
							</g>
							<path class="st2" d="M10.5,95.1c-0.9-0.2-1.8-0.3-2.7-0.3c-0.4,0-0.9,0-1.3,0c-0.2,0-0.4,0.1-0.6,0.2
								c-0.2,0.1-0.3,0.3-0.2,0.5l0,0c0.3,0.4,0.7,0.6,1.2,0.7c-0.5,0-1-0.2-1.3-0.6l0,0c-0.1-0.3,0.1-0.5,0.3-0.7
								c0.2-0.2,0.5-0.2,0.7-0.2c0.5,0,0.9,0,1.4,0C8.7,94.7,9.6,94.8,10.5,95.1z"/>
						</g>
						<g>
							<g>
								<path class="st2" d="M27.4,12.6c0.4,0.2,0.8,0.3,1.2,0.5c0.4,0.2,0.8,0.3,1.2,0.4c-0.4,0-0.9-0.1-1.3-0.2
									C28.2,13.1,27.8,12.9,27.4,12.6z"/>
								<path class="st2" d="M27.2,14c0.4,0.1,0.7,0.2,1.1,0.3c0.3,0.1,0.7,0.2,1.1,0.3c-0.4,0.1-0.8,0-1.1-0.1
									C27.9,14.4,27.5,14.2,27.2,14z"/>
								<path class="st2" d="M26.5,15.2c0.4,0.1,0.8,0.2,1.3,0.3c0.4,0.1,0.8,0.2,1.2,0.4c-0.4,0-0.9-0.1-1.3-0.2
									C27.3,15.6,26.9,15.5,26.5,15.2z"/>
								<path class="st2" d="M26.2,17c0.4,0.1,0.8,0.2,1.2,0.3c0.4,0.1,0.8,0.2,1.2,0.4c-0.4,0-0.8-0.1-1.2-0.2
									C26.9,17.4,26.5,17.3,26.2,17z"/>
								<path class="st2" d="M26.3,18.8c0.4,0.1,0.8,0.2,1.1,0.4c0.4,0.1,0.7,0.2,1.1,0.4c-0.4,0-0.8-0.1-1.2-0.2
									C27,19.2,26.6,19,26.3,18.8z"/>
								<path class="st2" d="M25.6,20.1c0.5,0.2,1,0.4,1.6,0.5c0.5,0.2,1,0.3,1.6,0.5c-0.6,0-1.1-0.2-1.6-0.3
									C26.5,20.6,26,20.4,25.6,20.1z"/>
								<path class="st2" d="M25.2,21.5l2.8,0.8c-0.5,0-1-0.1-1.4-0.2C26.1,21.9,25.6,21.8,25.2,21.5z"/>
								<path class="st2" d="M24.9,22.6c0.5,0.2,1,0.3,1.5,0.5c0.5,0.2,1,0.3,1.5,0.5c-0.5,0-1-0.1-1.6-0.3
									C25.8,23.1,25.3,22.9,24.9,22.6z"/>
								<path class="st2" d="M24.4,24.1l3.1,1c-0.6,0-1.1-0.2-1.6-0.3C25.4,24.6,24.8,24.4,24.4,24.1z"/>
								<path class="st2" d="M24.4,25.3c0.9,0.6,1.8,1,2.8,1.2C26.2,26.6,25.1,26.1,24.4,25.3z"/>
								<path class="st2" d="M23.7,27.4c0.5,0.1,0.9,0.3,1.4,0.4c0.4,0.1,0.9,0.2,1.4,0.3c-0.5,0.1-1,0-1.4-0.1
									C24.6,27.8,24.1,27.6,23.7,27.4z"/>
								<path class="st2" d="M23.2,28.6c0.5,0.2,1,0.3,1.5,0.5c0.5,0.2,1,0.3,1.5,0.4c-0.5,0-1.1-0.1-1.6-0.2
									C24.1,29.1,23.6,28.9,23.2,28.6z"/>
								<path class="st2" d="M22.9,30.1l2.8,0.8c-0.5,0-1-0.1-1.4-0.2C23.8,30.6,23.3,30.4,22.9,30.1z"/>
								<path class="st2" d="M22.4,31.3c0.5,0.2,1,0.4,1.6,0.5l1.6,0.5c-0.6,0-1.1-0.2-1.6-0.3C23.4,31.8,22.9,31.6,22.4,31.3z"/>
								<path class="st2" d="M21.9,32.9c0.5,0.1,1.1,0.3,1.6,0.4c0.5,0.1,1.1,0.2,1.6,0.4c-0.6,0-1.1-0.1-1.7-0.2
									C23,33.4,22.4,33.2,21.9,32.9z"/>
								<path class="st2" d="M21.5,34.3c0.6,0.2,1.1,0.4,1.7,0.5c0.6,0.2,1.1,0.3,1.7,0.4c-0.6,0.1-1.2,0-1.8-0.2
									C22.6,34.9,22,34.7,21.5,34.3z"/>
								<path class="st2" d="M21.2,35.8c0.6,0.2,1.1,0.4,1.6,0.5c0.5,0.2,1.1,0.3,1.7,0.5c-0.6,0-1.2-0.1-1.7-0.3
									C22.2,36.3,21.7,36.1,21.2,35.8z"/>
								<path class="st2" d="M21.2,37.2c0.5,0.2,0.9,0.4,1.4,0.6c0.5,0.2,0.9,0.3,1.4,0.4c-0.5,0-1-0.1-1.5-0.2
									C22,37.8,21.5,37.6,21.2,37.2z"/>
								<path class="st2" d="M21,39.2c0.5,0.1,0.9,0.2,1.3,0.3c0.4,0.1,0.9,0.2,1.3,0.2c-0.5,0.1-0.9,0-1.4,0
									C21.9,39.6,21.4,39.4,21,39.2z"/>
								<path class="st2" d="M20.6,40.2c0.5,0.2,1,0.3,1.6,0.5c0.5,0.1,1.1,0.2,1.6,0.3c-0.6,0.1-1.1,0-1.7-0.1
									C21.5,40.7,21,40.5,20.6,40.2z"/>
								<path class="st2" d="M20,41.2c0.6,0.2,1.2,0.4,1.9,0.5c0.6,0.1,1.3,0.2,1.9,0.3c-0.7,0.1-1.3,0-2-0.1
									C21.2,41.7,20.6,41.5,20,41.2z"/>
								<path class="st2" d="M19.6,42.4c0.7,0.2,1.4,0.5,2.1,0.6c0.7,0.2,1.4,0.3,2.1,0.4c-0.7,0.1-1.4,0-2.2-0.2
									C20.9,43.1,20.3,42.8,19.6,42.4z"/>
								<path class="st2" d="M19.8,43.9c0.7,0.2,1.4,0.3,2,0.5c0.7,0.2,1.4,0.3,2,0.5c-0.7,0-1.4-0.2-2.1-0.3
									C21.1,44.4,20.4,44.2,19.8,43.9z"/>
								<path class="st2" d="M19.5,45.5c1.4,0.6,2.9,0.8,4.4,0.8C22.4,46.6,20.8,46.3,19.5,45.5z"/>
								<path class="st2" d="M19.3,46.8c0.7,0.2,1.4,0.4,2.1,0.6c0.7,0.1,1.5,0.2,2.2,0.2c-0.7,0.1-1.5,0.1-2.2-0.1
									C20.7,47.4,20,47.2,19.3,46.8z"/>
								<path class="st2" d="M18.7,48.2c1.3,0.8,2.7,1.2,4.2,1.3C21.4,49.7,19.8,49.2,18.7,48.2z"/>
								<path class="st2" d="M18.1,49.9c1.4,0.7,3,1.1,4.6,1.1C21.1,51.2,19.4,50.8,18.1,49.9z"/>
								<path class="st2" d="M18.3,51.3c0.7,0.1,1.3,0.3,2,0.5c0.7,0.2,1.3,0.3,2,0.5c-0.7,0-1.4-0.2-2-0.3
									C19.6,51.8,18.9,51.6,18.3,51.3z"/>
								<path class="st2" d="M18.2,52.6c0.6,0.2,1.3,0.4,1.9,0.6c0.6,0.2,1.3,0.3,1.9,0.4c-0.7,0.1-1.3,0-2-0.2
									C19.4,53.2,18.8,53,18.2,52.6z"/>
								<path class="st2" d="M18.9,54.2c0.6,0.1,1.2,0.2,1.8,0.3c0.6,0.1,1.2,0.2,1.8,0.3c-0.6,0.1-1.3,0-1.9-0.1
									C20.1,54.6,19.5,54.5,18.9,54.2z"/>
								<path class="st2" d="M19.7,55.7c1,0.3,1.9,0.5,2.9,0.5C21.7,56.5,20.6,56.3,19.7,55.7z"/>
								<path class="st2" d="M19.2,56.9c0.7,0.1,1.4,0.2,2.1,0.3c0.7,0.1,1.4,0.2,2.1,0.2c-0.7,0.1-1.4,0-2.1,0
									C20.5,57.3,19.8,57.2,19.2,56.9z"/>
							</g>
							<path class="st2" d="M26.5,56.9c0.1,0.3,0.4,0.5,0.7,0.6c0.3,0.1,0.7,0.1,1,0.1c0.7-0.1,1.2-0.5,1.7-1c0.4-0.5,0.8-1.1,1-1.7
								c0.2-0.6,0.3-1.3,0-1.9l0,0c0,0-0.1,0-0.2,0.1l-0.3,0.2l-0.7,0.4l-1.4,0.8c-0.4,0.3-0.9,0.6-1.2,0.9
								C26.7,55.9,26.5,56.4,26.5,56.9z M26.5,56.9c-0.1-0.5,0.2-1,0.6-1.4c0.3-0.4,0.8-0.7,1.2-1l1.3-0.9l0.7-0.4l0.3-0.2
								c0.1,0,0.2-0.2,0.5-0.1l0,0l0,0c0.3,0.6,0.2,1.4,0,2c-0.3,0.6-0.6,1.2-1.1,1.7c-0.5,0.5-1.1,0.9-1.7,1c-0.3,0-0.7,0-1-0.1
								C26.9,57.5,26.6,57.3,26.5,56.9z"/>
							<g>
								<path class="st2" d="M31.8,46.5c-0.1,0.2-0.1,0.4-0.1,0.5c0,0.2,0.2,0.2,0.3,0.1c0.1-0.1,0.2-0.2,0.2-0.3
									C32.1,46.6,32,46.5,31.8,46.5z M31.8,46.5c0.2,0,0.4,0.1,0.5,0.3c0.1,0.2,0,0.5-0.2,0.6c-0.1,0-0.2,0.1-0.4,0
									c-0.1-0.1-0.2-0.2-0.2-0.3C31.5,46.8,31.6,46.6,31.8,46.5z"/>
								<path class="st2" d="M33.1,45.1c-0.2-0.1-0.5-0.1-0.6,0.1c0,0.2,0.1,0.4,0.3,0.5c0.2,0.1,0.4,0.1,0.5-0.1
									C33.5,45.4,33.3,45.2,33.1,45.1z M33.1,45.1c0.2,0.1,0.4,0.3,0.4,0.6c0,0.1-0.2,0.2-0.3,0.3c-0.1,0-0.3,0-0.4-0.1
									c-0.2-0.1-0.4-0.4-0.3-0.7C32.6,44.9,33,45,33.1,45.1z"/>
								<path class="st2" d="M31.3,46.1C31.2,46.1,31.2,46.1,31.3,46.1C31.2,46.1,31.2,46.2,31.3,46.1
									C31.3,46.1,31.3,46.1,31.3,46.1C31.3,46.1,31.2,46.1,31.3,46.1z M31.3,46.1c0,0-0.1,0.1-0.1,0c0,0,0-0.1,0-0.2
									C31.3,46,31.3,46,31.3,46.1C31.3,46.1,31.3,46.2,31.3,46.1z"/>
								<path class="st2" d="M32.1,41.2c0.1,0.1,0.3,0.1,0.4,0.1l0,0c0.1-0.1,0.2-0.3,0.2-0.4l0,0.1c-0.1-0.1-0.2-0.1-0.3-0.2l0.1,0
									C32.4,40.9,32.3,41.1,32.1,41.2z M32.1,41.2c0.1-0.2,0.1-0.3,0.2-0.5c0,0,0.1,0,0.1,0l0,0c0.1,0,0.3,0.1,0.4,0.2
									c0,0,0,0,0,0.1c0,0.2-0.1,0.4-0.3,0.5l0,0c0,0,0,0,0,0C32.3,41.5,32.2,41.4,32.1,41.2z"/>
								<path class="st2" d="M27.6,48c-0.3-0.2-0.6-0.2-1-0.3l0,0c-0.3,0.2-0.2,0.7,0,0.9c0.2,0.2,0.6,0.2,1,0.1l0,0
									c0.1,0,0.1,0,0.1,0.1c0,0,0,0,0,0c0,0.2,0.1,0.4,0.3,0.5c0.2,0.1,0.4,0.1,0.6,0c0.4-0.1,0.7-0.6,0.7-1c0,0.4-0.2,1-0.7,1.2
									c-0.2,0.1-0.5,0.1-0.7,0c-0.2-0.1-0.4-0.4-0.4-0.7l0.1,0.1c-0.4,0.1-0.8,0.1-1.1-0.2c-0.3-0.3-0.3-0.9,0-1.1c0,0,0,0,0,0
									C27,47.7,27.3,47.8,27.6,48z"/>
								<path class="st2" d="M29.2,47.1c0.2-0.1,0.3-0.3,0.3-0.5c-0.1-0.2-0.3-0.3-0.5-0.2c-0.2,0-0.3,0.2-0.3,0.4
									C28.7,46.9,28.9,47.1,29.2,47.1z M29.2,47.1c-0.2,0.1-0.5-0.1-0.6-0.3c-0.1-0.1-0.1-0.3,0-0.4c0.1-0.1,0.2-0.2,0.3-0.2
									c0.1,0,0.3,0,0.4,0.1c0.1,0.1,0.2,0.2,0.2,0.3C29.5,46.8,29.4,47,29.2,47.1z"/>
							</g>
						</g>
					</g>
				</g>
			</g>
			<g>
				<g>
					<g>
						<g>
							<g>
								<g>
									<g>
										<g>
											<path class="st2" d="M71.4,101.6c-0.8-0.2-1.5-0.6-2-1.2c-0.3-0.3-0.5-0.6-0.7-1c-0.2-0.4-0.2-0.8-0.3-1.2l-1.2-4.6
												L66,88.4l-0.3-1.2L65,84.3c-0.8-3.1-1.5-6.2-2.2-9.3l-2.1-8.9l-1.2,0.3c1.3,6.1,2.5,12.2,3.8,18.2l0.8,3.9l0.2,1.2
												l0.8,4.3l0.9,4.7c0.1,0.8,0.4,1.6,0.3,2.4c0,0.8-0.3,1.7-1,2.1c0.7-0.4,0.9-1.3,0.9-2.1c0-0.8-0.3-1.5-0.4-2.3L64.6,94
												l-0.9-4.1l-0.3-1.1l-0.9-4.1c-1.4-6.2-2.7-12.4-4-18.6c-0.1-0.2,0.1-0.4,0.3-0.5l1.9-0.4c0.2-0.1,0.4,0.1,0.5,0.3
												l2.2,9.3c0.7,3.1,1.4,6.2,2.1,9.4l0.6,2.7l0.3,1.2l1.2,5.4l1,4.7C68.7,99.8,69.9,101.1,71.4,101.6z"/>
										</g>
									</g>
									<g>
										<path class="st2" d="M66.2,100.9c-1.9,0.5-3.7,1.1-5.5,1.9c-0.9,0.4-1.8,0.7-2.6,1.2c-0.4,0.3-0.8,0.5-1.1,0.8
											c-0.1,0.2-0.2,0.3-0.2,0.5c0,0.1,0.2,0.3,0.4,0.4c0.8,0.4,1.8,0.4,2.8,0.4c1,0,1.9,0,2.9-0.1c1.9-0.2,3.8-0.5,5.7-1
											c1.9-0.4,3.7-1,5.5-1.6c0.9-0.3,1.8-0.7,2.7-1.1c0.8-0.4,1.7-0.8,2.4-1.4c0.8-0.7-0.5-1-1.3-1.1c-0.9-0.1-1.9-0.1-2.9-0.1
											c-1.9,0.1-3.8,0.3-5.7,0.6c0,0,0,0,0,0c0,0,0,0,0,0c1.9-0.4,3.8-0.8,5.7-0.9c1-0.1,1.9-0.1,2.9,0c0.5,0,1,0.1,1.5,0.4
											c0.1,0.1,0.2,0.2,0.4,0.3c0.1,0.1,0.2,0.3,0.2,0.5c0,0.4-0.2,0.6-0.4,0.8c-0.8,0.7-1.6,1.2-2.5,1.6
											c-0.9,0.4-1.8,0.7-2.7,1c-1.8,0.6-3.7,1-5.6,1.4c-1.9,0.4-3.8,0.7-5.7,0.9c-1,0.1-1.9,0.2-2.9,0.2c-1,0-2,0-2.9-0.3
											c-0.2-0.1-0.5-0.3-0.6-0.6c-0.1-0.4,0.1-0.6,0.3-0.8c0.4-0.4,0.8-0.7,1.2-0.9c0.9-0.5,1.8-0.9,2.7-1.2
											C62.4,101.7,64.3,101.2,66.2,100.9C66.2,100.9,66.2,100.9,66.2,100.9C66.3,100.9,66.2,100.9,66.2,100.9z"/>
										<path class="st2" d="M79.6,99.6c0.4,0.3,0.6,0.9,0.5,1.5c-0.1,0.6-0.6,0.9-1.1,1.2c-0.9,0.6-1.9,1.1-2.9,1.5
											c-2,0.8-4.1,1.3-6.3,1.8c-2.1,0.5-4.3,0.8-6.4,1.1c-2.2,0.2-4.4,0.4-6.5,0.1l0,0l0,0c-0.3-0.2-0.4-0.5-0.4-0.8
											c0-0.3,0-0.6,0-0.9c0,0.3-0.1,0.6,0,0.9c0,0.3,0.2,0.6,0.4,0.8l0,0c2.2,0.2,4.3,0,6.5-0.3c2.1-0.3,4.3-0.7,6.4-1.1
											c2.1-0.5,4.2-1,6.3-1.7c1-0.4,2-0.8,2.9-1.4c0.5-0.3,0.9-0.6,1.1-1.1C80.1,100.5,80,99.9,79.6,99.6z"/>
									</g>
								</g>
								<g>
									<g>
										<path class="st2" d="M41.4,17.8c2.4,10.5,4.5,20.7,6.4,31c0.5,2.6,0.8,5.2,1.5,7.7c0.7,2.5,1.6,5.1,3.3,7
											c0.9,1,1.9,1.7,3.2,2.1c0.3,0.1,0.6,0.1,0.9,0.2c0.3,0,0.6,0,1,0.1c0.6,0,1.3-0.1,1.9-0.2c1.3-0.3,2.5-0.7,3.5-1.5
											c1-0.8,1.7-1.9,2.1-3.1c0.8-2.4,0.5-5.1,0.2-7.7c-0.4-2.6-1.1-5.1-1.7-7.7c-1.3-5.1-2.7-10.2-4-15.3
											c-1.3-5.1-2.5-10.2-3.8-15.4L56,14.9c0,0,0,0.1,0.1,0.1c0.2,0-0.1,0-0.3,0c-0.3,0-0.6,0-0.9,0c-0.6,0.1-1.3,0.2-1.9,0.3
											c-1.3,0.2-2.6,0.3-3.9,0.6l-3.9,0.7C43.8,16.8,42.5,17.2,41.4,17.8z M41.3,17.7c1.1-0.8,2.4-1.2,3.7-1.6
											c1.3-0.3,2.5-0.7,3.9-1c1.3-0.3,2.6-0.5,3.9-0.7c0.7-0.1,1.3-0.3,2-0.4c0.3-0.1,0.7-0.1,1.1-0.1l0.3,0c0,0,0.3,0,0.4,0.1
											c0.2,0.1,0.3,0.3,0.4,0.4l0.1,0.3c1.4,5.1,2.8,10.2,4.1,15.3c1.3,5.1,2.6,10.2,3.9,15.4c0.3,1.3,0.7,2.6,0.9,3.9
											c0.3,1.3,0.5,2.6,0.7,3.9c0.3,2.6,0.4,5.4-0.5,8c-0.5,1.3-1.3,2.5-2.4,3.3l-0.4,0.3l-0.5,0.2c-0.3,0.2-0.6,0.3-0.9,0.4
											c-0.6,0.2-1.3,0.4-1.9,0.5c-0.7,0.1-1.3,0.2-2,0.2c-0.3,0-0.7,0-1-0.1c-0.3-0.1-0.7-0.1-1-0.2c-0.7-0.2-1.3-0.5-1.8-0.8
											c-0.6-0.4-1.1-0.8-1.5-1.3c-0.9-1-1.6-2.2-2.2-3.4c-0.6-1.2-1-2.4-1.5-3.7c-0.9-2.5-1.3-5.2-1.9-7.8
											C44.7,38.5,42.9,28,41.3,17.7z"/>
									</g>
									<path class="st2" d="M55.4,14.6c0.2,0.1,0.5,0.3,0.7,0.4l0,0l0,0c0.1,0.2,0,0.4-0.1,0.5c-0.1,0.1-0.3,0.2-0.4,0.3
										c-0.3,0.1-0.6,0.2-0.9,0.4c-0.6,0.2-1.2,0.4-1.8,0.6c-1.2,0.4-2.5,0.7-3.7,1c-1.2,0.3-2.5,0.5-3.7,0.7
										c-1.3,0.2-2.6,0.2-3.8-0.4c1.2,0.3,2.5,0.1,3.7-0.1l3.7-0.9c1.2-0.3,2.5-0.6,3.7-0.9c0.6-0.1,1.2-0.3,1.8-0.5l0.9-0.3
										c0.2-0.1,0.6-0.3,0.5-0.5l0,0C55.9,14.9,55.7,14.7,55.4,14.6z"/>
								</g>
							</g>
							<path class="st2" d="M49.6,45.4c1.2,1.3,2.6,2.4,4.2,3.2c0.8,0.4,1.6,0.7,2.4,1c0.8,0.3,1.7,0.5,2.5,0.6
								c0.9,0.1,1.7,0.2,2.6,0.1c0.9,0,1.8-0.1,2.7,0c0.2,0,0.4,0.1,0.7,0.1c0.2,0.1,0.5,0.3,0.5,0.5c0.1,0.5,0,0.9-0.1,1.4
								c-0.3,0.9-1.2,1.5-2,1.8c-0.9,0.3-1.8,0.4-2.7,0.4c-0.9,0-1.8-0.1-2.7-0.3C56,53.9,54.3,53,52.9,52c-1.4-1.1-2.7-2.4-3.7-4
								c-0.5-0.8-0.9-1.5-1.4-2.2c-0.3-0.3-0.6-0.6-0.9-1c-0.1-0.2-0.3-0.4-0.3-0.6c-0.1-0.2,0-0.5,0.1-0.7l0,0c0,0,0.1-0.1,0.1,0
								c0.6,0.1,1.2,0.4,1.6,0.8C48.8,44.5,49.2,45,49.6,45.4z M49.5,45.5c-0.4-0.4-0.8-0.9-1.3-1.2c-0.4-0.4-1-0.6-1.6-0.6l0.1-0.1
								c-0.2,0.4,0,0.8,0.3,1.1c0.3,0.3,0.6,0.6,1,0.9c0.7,0.6,1.1,1.4,1.6,2.2c0.5,0.7,1,1.4,1.6,2c0.6,0.6,1.2,1.2,1.9,1.7
								c1.4,1.1,2.9,1.9,4.6,2.3c0.8,0.2,1.7,0.4,2.6,0.4c0.9,0,1.8,0,2.6-0.3c0.8-0.3,1.6-0.8,1.9-1.6c0.2-0.4,0.2-0.8,0.1-1.2
								c-0.1-0.4-0.6-0.4-1-0.5c-0.9-0.1-1.7,0.1-2.6,0.2c-0.9,0.1-1.8,0.1-2.7,0c-1.8-0.2-3.5-0.9-5-1.8c-0.8-0.5-1.5-1-2.2-1.6
								C50.8,46.8,50.1,46.1,49.5,45.5z"/>
						</g>
					</g>
					<g>
						<g>
							<path class="st2" d="M59.4,105.2c-0.4,0-0.4-0.6-0.2-0.8c0.3-0.2,0.6-0.4,0.8-0.6c0.6-0.3,1.2-0.6,1.8-0.9
								c1.2-0.5,2.5-0.9,3.8-1.2c-1.3,0.4-2.5,0.8-3.7,1.4c-0.6,0.3-1.2,0.5-1.8,0.8c-0.3,0.2-0.6,0.3-0.8,0.5
								c-0.1,0.1-0.2,0.2-0.2,0.4C59.1,105.1,59.2,105.2,59.4,105.2z"/>
							<g>
								<path class="st2" d="M59,66.9C58.9,66.9,59,66.9,59,66.9l0.3,0c0.1,0,0.3-0.1,0.4-0.1c0.3-0.1,0.6-0.2,0.9-0.2
									c-0.2,0.2-0.5,0.4-0.8,0.4c-0.2,0-0.3,0.1-0.5,0.1c-0.1,0-0.2,0-0.2,0C59,67,58.9,67,59,66.9C58.9,66.9,59,66.8,59,66.9z"/>
								<path class="st2" d="M59.3,67.8c0.2-0.1,0.5-0.2,0.7-0.3c0.2-0.1,0.5-0.2,0.7-0.3c-0.2,0.2-0.4,0.3-0.7,0.4
									C59.9,67.7,59.6,67.8,59.3,67.8z"/>
								<path class="st2" d="M59.4,68.5c0.5-0.1,0.9-0.3,1.4-0.5C60.5,68.5,59.9,68.7,59.4,68.5z"/>
								<path class="st2" d="M60,69.3c0.2-0.1,0.4-0.2,0.6-0.3c0.2-0.1,0.4-0.2,0.7-0.2c-0.2,0.2-0.4,0.3-0.6,0.4
									C60.5,69.3,60.3,69.4,60,69.3z"/>
								<path class="st2" d="M60,70.2c0.5-0.2,1-0.3,1.5-0.5C61.1,70.1,60.5,70.3,60,70.2z"/>
								<path class="st2" d="M60.2,71.2c0.2-0.1,0.5-0.2,0.7-0.3c0.2-0.1,0.5-0.2,0.7-0.2c-0.2,0.2-0.4,0.3-0.6,0.4
									C60.7,71.1,60.5,71.2,60.2,71.2z"/>
								<path class="st2" d="M60.4,72.2l1.7-0.6c-0.2,0.2-0.5,0.4-0.8,0.5C61.1,72.2,60.7,72.3,60.4,72.2z"/>
								<path class="st2" d="M60.6,73.3c0.5-0.2,0.9-0.3,1.4-0.5C61.7,73.2,61.2,73.4,60.6,73.3z"/>
								<path class="st2" d="M61.2,74.4c0.5-0.2,1-0.4,1.5-0.6C62.3,74.2,61.7,74.5,61.2,74.4z"/>
								<path class="st2" d="M61.5,76.2c0.2-0.1,0.4-0.2,0.6-0.2c0.2,0,0.4-0.1,0.6-0.1c-0.2,0.2-0.4,0.2-0.6,0.3
									C62,76.2,61.7,76.3,61.5,76.2z"/>
								<path class="st2" d="M62,77.3c0.1-0.1,0.3-0.2,0.4-0.2c0.2-0.1,0.3-0.1,0.5-0.2c-0.1,0.2-0.2,0.3-0.4,0.3
									C62.4,77.3,62.2,77.4,62,77.3z"/>
								<path class="st2" d="M62.5,78.6c0.2-0.1,0.3-0.2,0.5-0.2c0.2-0.1,0.3-0.1,0.5-0.1c-0.1,0.2-0.3,0.2-0.5,0.3
									C62.9,78.6,62.7,78.7,62.5,78.6z"/>
								<path class="st2" d="M65,93.3c0.7-0.2,1.2-0.5,1.9-0.8c-0.2,0.3-0.5,0.4-0.9,0.6C65.7,93.3,65.3,93.4,65,93.3z"/>
								<path class="st2" d="M64.7,91.5c0.4-0.2,0.8-0.3,1.2-0.5C65.7,91.5,65.1,91.7,64.7,91.5z"/>
								<path class="st2" d="M64.6,90.3c0.3-0.1,0.5-0.1,0.9-0.2C65.3,90.4,64.8,90.5,64.6,90.3z"/>
								<path class="st2" d="M65.5,94.7c0.5-0.1,1-0.2,1.5-0.3C66.6,94.8,66,94.9,65.5,94.7z"/>
								<path class="st2" d="M65.8,95.7c0.4-0.1,0.8-0.2,1.2-0.3C66.7,95.7,66.2,95.8,65.8,95.7z"/>
								<path class="st2" d="M66.1,96.8c0.4-0.2,0.7-0.3,1.1-0.5C67,96.7,66.5,96.9,66.1,96.8z"/>
								<path class="st2" d="M66.2,98.1c0.5-0.1,0.8-0.2,1.3-0.3C67.2,98.2,66.6,98.3,66.2,98.1z"/>
								<path class="st2" d="M66.8,102.9c0.9,0.1,1.7-0.1,2.4-0.6C68.6,103,67.6,103.3,66.8,102.9z"/>
							</g>
						</g>
						<g>
							<g>
								<g>
									<path class="st2" d="M42.3,19.6c0.6,0,1.2,0,1.8-0.1c0.6,0,1.2-0.1,1.7-0.2c-0.5,0.2-1.1,0.3-1.7,0.4
										C43.5,19.7,42.9,19.7,42.3,19.6z"/>
									<path class="st2" d="M43,20.5c0.5,0,0.9-0.1,1.4-0.1c0.5,0,0.9-0.1,1.4-0.2c-0.4,0.2-0.9,0.3-1.3,0.4
										C43.9,20.6,43.4,20.6,43,20.5z"/>
									<path class="st2" d="M43.1,21.7c0.5-0.1,1-0.1,1.4-0.1c0.5,0,0.9-0.1,1.4-0.2c-0.4,0.2-0.9,0.3-1.4,0.4
										C44.1,21.8,43.6,21.8,43.1,21.7z"/>
									<path class="st2" d="M43.4,22.9c0.5-0.1,0.9-0.1,1.4-0.2c0.5-0.1,0.9-0.2,1.3-0.3c-0.4,0.2-0.9,0.4-1.3,0.5
										C44.3,23,43.9,23,43.4,22.9z"/>
									<path class="st2" d="M43.9,24.5c0.5-0.1,0.9-0.1,1.3-0.2c0.4,0,0.9-0.1,1.3-0.2c-0.4,0.2-0.9,0.3-1.3,0.4
										C44.8,24.6,44.4,24.6,43.9,24.5z"/>
									<path class="st2" d="M44,25.9c1,0,1.8-0.2,2.8-0.5C45.9,25.9,44.9,26.1,44,25.9z"/>
									<path class="st2" d="M44.6,27.4c0.4-0.1,0.7-0.2,1.1-0.3c0.4-0.1,0.7-0.2,1.1-0.2c-0.3,0.2-0.7,0.3-1,0.4
										C45.3,27.3,45,27.4,44.6,27.4z"/>
									<path class="st2" d="M44.4,28.5c0.5-0.1,1-0.2,1.4-0.3c0.5-0.1,0.9-0.2,1.4-0.3c-0.4,0.3-0.9,0.4-1.4,0.5
										C45.4,28.5,44.9,28.6,44.4,28.5z"/>
									<path class="st2" d="M44.7,29.9c0.9-0.1,1.7-0.3,2.5-0.7C46.5,29.9,45.5,30.1,44.7,29.9z"/>
									<path class="st2" d="M44.6,31.1c0.5-0.1,1.1-0.1,1.6-0.2c0.5-0.1,1-0.2,1.6-0.2c-0.5,0.2-1,0.4-1.5,0.4
										C45.6,31.2,45.1,31.3,44.6,31.1z"/>
									<path class="st2" d="M45,32.2c1,0,1.9-0.2,2.8-0.6C47,32.2,46,32.5,45,32.2z"/>
									<path class="st2" d="M45.1,33.4c0.5-0.1,1-0.1,1.4-0.2c0.5-0.1,0.9-0.2,1.4-0.3c-0.4,0.3-0.9,0.4-1.4,0.5
										C46,33.5,45.5,33.5,45.1,33.4z"/>
									<path class="st2" d="M45.2,34.8c0.4-0.1,0.9-0.1,1.3-0.2c0.4-0.1,0.8-0.2,1.3-0.3c-0.4,0.3-0.8,0.4-1.2,0.5
										C46.1,34.9,45.7,34.9,45.2,34.8z"/>
									<path class="st2" d="M45.8,36.2c0.4-0.2,0.8-0.3,1.2-0.4c0.4-0.1,0.8-0.2,1.2-0.3c-0.3,0.2-0.7,0.4-1.1,0.5
										C46.6,36.1,46.2,36.2,45.8,36.2z"/>
									<path class="st2" d="M46,37.2c0.4-0.1,0.8-0.2,1.3-0.3c0.4-0.1,0.8-0.2,1.3-0.3c-0.4,0.2-0.8,0.4-1.2,0.5
										C46.8,37.2,46.4,37.2,46,37.2z"/>
									<path class="st2" d="M46.4,38.7c0.4-0.1,0.8-0.1,1.2-0.2c0.4-0.1,0.8-0.2,1.1-0.3c-0.3,0.2-0.7,0.4-1.1,0.5
										C47.2,38.7,46.8,38.7,46.4,38.7z"/>
									<path class="st2" d="M46.6,40.5c0.4-0.2,0.8-0.3,1.2-0.4c0.4-0.1,0.8-0.3,1.2-0.4c-0.3,0.3-0.7,0.4-1.1,0.6
										C47.5,40.3,47,40.4,46.6,40.5z"/>
									<path class="st2" d="M46.4,41.7c0.5-0.2,1-0.4,1.5-0.5c0.5-0.1,1-0.2,1.6-0.3c-0.5,0.2-1,0.3-1.5,0.5
										C47.4,41.5,46.9,41.7,46.4,41.7z"/>
									<path class="st2" d="M46.4,43.2c0.5-0.1,1.1-0.3,1.6-0.4c0.5-0.1,1-0.3,1.6-0.5c-0.5,0.3-1,0.5-1.5,0.7
										C47.5,43.1,46.9,43.2,46.4,43.2z"/>
									<path class="st2" d="M47.3,44.4c0.4-0.1,0.8-0.2,1.2-0.3c0.4-0.1,0.8-0.2,1.2-0.4c-0.3,0.3-0.8,0.4-1.2,0.6
										C48.1,44.4,47.7,44.5,47.3,44.4z"/>
									<path class="st2" d="M47.6,45.9c0.4-0.1,0.8-0.2,1.2-0.3c0.4-0.1,0.8-0.2,1.2-0.3c-0.4,0.2-0.8,0.4-1.2,0.5
										C48.4,45.9,48,45.9,47.6,45.9z"/>
									<path class="st2" d="M48.1,47.3c0.5-0.1,1-0.2,1.4-0.4c0.5-0.1,0.9-0.3,1.4-0.5c-0.4,0.3-0.9,0.5-1.3,0.7
										C49.1,47.3,48.6,47.4,48.1,47.3z"/>
									<path class="st2" d="M48,49c0.5-0.2,1.1-0.3,1.6-0.4c0.5-0.1,1.1-0.3,1.6-0.5c-0.5,0.3-1,0.5-1.5,0.7
										C49.2,48.9,48.6,49,48,49z"/>
									<path class="st2" d="M48.3,50.5c0.5-0.2,1.1-0.4,1.6-0.5c0.5-0.1,1.1-0.3,1.6-0.3c-0.5,0.2-1,0.4-1.6,0.5
										C49.4,50.3,48.8,50.4,48.3,50.5z"/>
									<path class="st2" d="M49.1,51.7c0.5-0.1,1-0.3,1.4-0.4c0.5-0.1,0.9-0.3,1.4-0.5c-0.4,0.3-0.9,0.5-1.3,0.7
										C50.1,51.6,49.6,51.7,49.1,51.7z"/>
									<path class="st2" d="M49.2,52.8c1.1-0.1,2.1-0.3,3.2-0.6C51.4,52.8,50.2,53,49.2,52.8z"/>
									<path class="st2" d="M49.7,54.1c0.6-0.1,1.2-0.2,1.7-0.3c0.6-0.1,1.1-0.3,1.7-0.4c-0.5,0.3-1.1,0.5-1.7,0.6
										C50.9,54.1,50.3,54.1,49.7,54.1z"/>
									<path class="st2" d="M50,55.3c0.6-0.1,1.1-0.2,1.6-0.4c0.5-0.1,1.1-0.3,1.6-0.5c-0.5,0.3-1,0.5-1.6,0.7
										C51.2,55.2,50.6,55.3,50,55.3z"/>
									<path class="st2" d="M50.4,56.6c1.1-0.1,2.1-0.3,3.1-0.6C52.7,56.6,51.5,56.8,50.4,56.6z"/>
									<path class="st2" d="M51.1,58.1c0.5-0.1,1.1-0.2,1.6-0.4c0.5-0.1,1-0.3,1.5-0.5c-0.4,0.3-0.9,0.6-1.5,0.7
										C52.2,58,51.7,58.1,51.1,58.1z"/>
									<path class="st2" d="M51.8,58.9c0.6-0.1,1.1-0.2,1.7-0.4c0.6-0.1,1.1-0.3,1.7-0.5c-0.5,0.3-1.1,0.5-1.6,0.7
										C53,58.9,52.4,59,51.8,58.9z"/>
									<path class="st2" d="M52.3,60.2c0.6-0.2,1.2-0.3,1.7-0.5c0.6-0.2,1.1-0.5,1.7-0.7c-0.5,0.4-1,0.7-1.6,0.9
										C53.5,60.1,52.9,60.2,52.3,60.2z"/>
									<path class="st2" d="M52.3,61.5c1.5,0,3-0.3,4.3-1C55.4,61.4,53.7,61.8,52.3,61.5z"/>
									<path class="st2" d="M53.2,62.4c0.7,0,1.4-0.1,2.1-0.2c0.7-0.1,1.4-0.3,2-0.5c-0.6,0.3-1.3,0.5-2,0.7
										C54.6,62.5,53.9,62.5,53.2,62.4z"/>
									<path class="st2" d="M54.4,63.3c1.1,0,2.2-0.4,3.3-0.7c-0.5,0.3-1,0.5-1.6,0.6C55.5,63.4,54.9,63.4,54.4,63.3z"/>
									<path class="st2" d="M55.8,64.4c0.4-0.1,0.8-0.2,1.2-0.3c0.4-0.1,0.8-0.2,1.2-0.3c-0.4,0.3-0.8,0.4-1.2,0.5
										C56.6,64.3,56.2,64.4,55.8,64.4z"/>
									<path class="st2" d="M57.9,65.1c0.3-0.1,0.7-0.2,1-0.3c0.3-0.1,0.7-0.3,1-0.4c-0.3,0.3-0.6,0.4-0.9,0.6
										C58.6,65.1,58.2,65.2,57.9,65.1z"/>
								</g>
								<path class="st2" d="M62.2,60.5c0.5,0.3,1.2,0,1.5-0.5c0.3-0.5,0.4-1.1,0.5-1.7c0.2-1.2,0.1-2.4-0.1-3.5
									c-0.2-1.2-0.5-2.3-0.8-3.5c-0.2-0.6-0.4-1.1-0.7-1.6c-0.2-0.2-0.4-0.4-0.7-0.5c-0.3-0.1-0.6,0-0.5,0.2l0,0
									c0.5,1.8,0.8,3.7,0.8,5.6c0,0.9-0.1,1.9-0.3,2.8c-0.1,0.5-0.2,0.9-0.3,1.4C61.8,59.7,61.8,60.2,62.2,60.5z M62.2,60.5
									c-0.4-0.3-0.5-0.8-0.5-1.3c0-0.5,0.2-0.9,0.2-1.4c0.2-0.9,0.2-1.9,0.3-2.8c0-1.9-0.3-3.7-0.9-5.5l0,0c0-0.2,0.1-0.4,0.3-0.5
									c0.2-0.1,0.3,0,0.5,0c0.3,0.1,0.6,0.3,0.8,0.5c0.3,0.5,0.6,1.1,0.7,1.7c0.3,1.2,0.5,2.3,0.7,3.5c0.2,1.2,0.2,2.4,0,3.6
									c-0.1,0.6-0.2,1.2-0.6,1.7C63.5,60.5,62.8,60.8,62.2,60.5z"/>
							</g>
							<g>
								<path class="st2" d="M53.9,54.3c0,0.2,0.2,0.2,0.3,0.1c0.1,0,0.1-0.1,0.1-0.2c0-0.1-0.1-0.1-0.2-0.1
									c0.1-0.1,0.2-0.1,0.3,0.1c0.1,0.1,0,0.3,0,0.4c-0.1,0.1-0.2,0.1-0.4,0.1C53.8,54.5,53.9,54.4,53.9,54.3z"/>
								<path class="st2" d="M55.2,55.5c0.1-0.2,0-0.4-0.1-0.5c-0.1-0.1-0.3-0.2-0.4,0c-0.1,0.2-0.1,0.4,0,0.5
									C54.8,55.6,55.1,55.7,55.2,55.5z M55.2,55.5c-0.1,0.2-0.4,0.2-0.6,0c-0.2-0.2-0.2-0.5-0.1-0.7c0-0.1,0.2-0.2,0.3-0.2
									c0.1,0,0.2,0.1,0.3,0.2C55.3,55,55.4,55.3,55.2,55.5z"/>
								<path class="st2" d="M56.9,55.8c0.2,0,0.4-0.1,0.4-0.3c0-0.2-0.1-0.3-0.3-0.3l0.1,0C57,55.4,56.9,55.6,56.9,55.8z
									 M56.9,55.8c-0.1-0.2-0.1-0.5,0.1-0.8c0,0,0,0,0.1,0c0.3,0,0.5,0.3,0.4,0.6C57.4,55.9,57.1,56,56.9,55.8z"/>
								<path class="st2" d="M56.4,58.7c0,0.3,0.3,0.6,0.6,0.5c0.3,0,0.5-0.3,0.5-0.5c0-0.3-0.2-0.5-0.5-0.5c-0.1,0-0.3,0-0.4,0.1
									C56.5,58.4,56.4,58.5,56.4,58.7z M56.4,58.7c0-0.2,0.1-0.3,0.1-0.4c0.1-0.2,0.3-0.2,0.4-0.2c0.2,0,0.3,0.1,0.5,0.2
									c0.1,0.1,0.2,0.3,0.2,0.5c0,0.4-0.3,0.7-0.7,0.6C56.6,59.3,56.4,59,56.4,58.7z"/>
								<path class="st2" d="M58.5,57.8c-0.2,0.1-0.2,0.3-0.2,0.5c0,0.2,0.2,0.3,0.2,0.5c0.1,0.4-0.2,0.8,0,1.1
									c0.2,0.3,0.5,0.6,0.9,0.6c0.4,0,0.7-0.3,0.8-0.7c0,0.4-0.3,0.8-0.8,0.8c-0.5,0-0.8-0.3-1-0.6c-0.2-0.5,0.1-0.9,0-1.2
									c0-0.2-0.2-0.3-0.2-0.6C58.1,58.1,58.3,57.9,58.5,57.8z"/>
							</g>
						</g>
					</g>
				</g>
			</g>
			<path class="st2" d="M47.2,12c1.8-1.7,4-3.1,6.4-3.8l0.1,0.3c-0.7,0.1-1.4,0.3-2.1,0.2c-0.7-0.1-1.4-0.3-2-0.8
				c-0.6-0.4-1-1.1-1.2-1.8c-0.2-0.7-0.3-1.4-0.4-2.1l0.4,0C48.3,4.6,48,5,47.6,5.2c-0.4,0.2-0.8,0.4-1.3,0.5
				c-0.4,0.1-0.9,0.1-1.4-0.1c-0.4-0.1-0.8-0.4-1.1-0.7c-0.6-0.7-1.1-1.4-1.4-2.2C42,1.9,41.8,1,41.5,0.2l0.3,0
				c-0.1,0.6-0.2,1.3-0.3,2c-0.2,0.6-0.4,1.3-0.8,1.8C39.8,5.1,38,5.2,37,4.2c0,0,0-0.1,0-0.1c0,0,0.1,0,0.1,0
				c0.9,0.8,1.4,2.1,1.1,3.3C38.4,6.2,37.9,5,37,4.2l0.1-0.1c1,0.8,2.6,0.7,3.4-0.3c0.4-0.5,0.6-1.1,0.7-1.7
				c0.1-0.6,0.2-1.3,0.3-1.9c0-0.1,0.1-0.2,0.2-0.1c0.1,0,0.1,0.1,0.1,0.1c0.2,0.8,0.5,1.7,0.8,2.4C43,3.3,43.5,4,44.1,4.6
				c0.3,0.3,0.6,0.5,1,0.6c0.4,0.1,0.8,0.1,1.2,0.1c0.4-0.1,0.8-0.2,1.1-0.4C47.7,4.7,48,4.4,48,4l0,0c0-0.1,0.1-0.2,0.2-0.2
				c0.1,0,0.2,0.1,0.2,0.2c0.1,0.7,0.1,1.4,0.3,2c0.2,0.6,0.5,1.2,1,1.6c0.5,0.4,1.2,0.6,1.8,0.7c0.7,0.1,1.3,0,2-0.1
				c0.1,0,0.1,0,0.2,0.1c0,0.1,0,0.1-0.1,0.2C51.3,9.2,49,10.4,47.2,12z"/>
		</g>
	</g>
</g>
</svg>
